STARTFONT 2.3
FONT -FontForge-Shadows Into Light-Book-R-Normal--16-160-72-72-P-65-ISO10646-1
SIZE 16 72 72  4
FONTBOUNDINGBOX 23 26 -3 -7
COMMENT "Generated by fontforge, http://fontforge.sourceforge.net"
COMMENT "Copyright (c) 2010, Kimberly Geswein (kimberlygeswein.com)"
STARTPROPERTIES 40
FOUNDRY "FontForge"
FAMILY_NAME "Shadows Into Light"
WEIGHT_NAME "Book"
SLANT "R"
SETWIDTH_NAME "Normal"
ADD_STYLE_NAME ""
PIXEL_SIZE 16
POINT_SIZE 160
RESOLUTION_X 72
RESOLUTION_Y 72
SPACING "P"
AVERAGE_WIDTH 65
CHARSET_REGISTRY "ISO10646"
CHARSET_ENCODING "1"
FONTNAME_REGISTRY ""
CHARSET_COLLECTIONS "ISO8859-2 ISO8859-9 ISO8859-4 ISO10646-1"
BITS_PER_PIXEL 4
FONT_NAME "ShadowsIntoLight"
FACE_NAME "Shadows Into Light"
COPYRIGHT "Copyright (c) 2010, Kimberly Geswein (kimberlygeswein.com)"
FONT_VERSION "001.000"
FONT_ASCENT 13
FONT_DESCENT 3
UNDERLINE_POSITION 0
UNDERLINE_THICKNESS 0
X_HEIGHT 9
CAP_HEIGHT 11
RAW_ASCENT 799
RAW_DESCENT 200
NORM_SPACE 7
RELATIVE_WEIGHT 40
RELATIVE_SETWIDTH 50
SUPERSCRIPT_X 0
SUPERSCRIPT_Y 7
SUPERSCRIPT_SIZE 10
SUBSCRIPT_X 0
SUBSCRIPT_Y 2
SUBSCRIPT_SIZE 10
AVG_LOWERCASE_WIDTH 59
AVG_UPPERCASE_WIDTH 77
ENDPROPERTIES
CHARS 352
STARTCHAR space
ENCODING 32
SWIDTH 450 0
DWIDTH 7 0
BBX 1 1 0 0
BITMAP
00
ENDCHAR
STARTCHAR exclam
ENCODING 33
SWIDTH 137 0
DWIDTH 2 0
BBX 2 14 0 0
BITMAP
40
91
91
A1
A1
B1
B2
B4
52
00
00
00
00
08
ENDCHAR
STARTCHAR quotedbl
ENCODING 34
SWIDTH 212 0
DWIDTH 3 0
BBX 3 5 0 8
BITMAP
5130
7490
6590
4690
2630
ENDCHAR
STARTCHAR numbersign
ENCODING 35
SWIDTH 450 0
DWIDTH 7 0
BBX 8 10 0 1
BITMAP
00002000
0020A000
02A0D000
00C3F810
0BE6C000
00C0C791
00D3E700
05F78400
18B04500
00300000
ENDCHAR
STARTCHAR dollar
ENCODING 36
SWIDTH 445 0
DWIDTH 7 0
BBX 7 15 0 -2
BITMAP
00030000
000C0000
000D2000
006E9100
089C0000
780C0000
D20E0000
6AAE9720
000A1180
00093920
000AD200
008B6000
00048000
0001B000
00006000
ENDCHAR
STARTCHAR percent
ENCODING 37
SWIDTH 450 0
DWIDTH 7 0
BBX 7 13 0 0
BITMAP
00003400
00009400
5B70D000
B263A000
B5675000
370B1000
000B0100
00280C90
00550A90
00810D80
00800510
00700000
00600000
ENDCHAR
STARTCHAR ampersand
ENCODING 38
SWIDTH 356 0
DWIDTH 6 0
BBX 6 8 0 1
BITMAP
002600
003700
003762
59CE80
80AB00
988A00
233A00
000100
ENDCHAR
STARTCHAR quotesingle
ENCODING 39
SWIDTH 155 0
DWIDTH 2 0
BBX 2 5 0 5
BITMAP
76
69
49
28
04
ENDCHAR
STARTCHAR parenleft
ENCODING 40
SWIDTH 291 0
DWIDTH 5 0
BBX 5 14 0 0
BITMAP
000100
000A20
007700
01B000
094000
0B0000
570000
940000
B20000
B10000
930000
480000
0B3000
02A500
ENDCHAR
STARTCHAR parenright
ENCODING 41
SWIDTH 241 0
DWIDTH 4 0
BBX 4 12 0 0
BITMAP
7500
0A30
02B0
0091
0065
0046
0036
0055
0093
00D0
0580
0500
ENDCHAR
STARTCHAR asterisk
ENCODING 42
SWIDTH 481 0
DWIDTH 8 0
BBX 8 8 0 1
BITMAP
00260100
00374A00
564AA121
07EFCB81
6BDEB300
12DB2A60
0C691000
04072000
ENDCHAR
STARTCHAR plus
ENCODING 43
SWIDTH 466 0
DWIDTH 7 0
BBX 8 8 0 1
BITMAP
00260000
00370000
00370021
003BAB81
6ACB1000
103A0000
001A0000
00010000
ENDCHAR
STARTCHAR comma
ENCODING 44
SWIDTH 112 0
DWIDTH 2 0
BBX 2 4 0 -2
BITMAP
57
69
66
52
ENDCHAR
STARTCHAR hyphen
ENCODING 45
SWIDTH 399 0
DWIDTH 6 0
BBX 6 3 0 3
BITMAP
000002
0028EB
7CA510
ENDCHAR
STARTCHAR period
ENCODING 46
SWIDTH 128 0
DWIDTH 2 0
BBX 2 1 0 0
BITMAP
77
ENDCHAR
STARTCHAR slash
ENCODING 47
SWIDTH 306 0
DWIDTH 5 0
BBX 5 14 0 -2
BITMAP
000110
000740
000B00
002A00
006500
00A100
01A000
056000
092000
0B0000
370000
830000
A00000
200000
ENDCHAR
STARTCHAR zero
ENCODING 48
SWIDTH 308 0
DWIDTH 5 0
BBX 5 9 0 0
BITMAP
018300
092A00
350630
630350
730360
640350
360630
090B00
06C600
ENDCHAR
STARTCHAR one
ENCODING 49
SWIDTH 112 0
DWIDTH 2 0
BBX 2 10 0 0
BITMAP
72
72
73
73
83
84
74
74
65
45
ENDCHAR
STARTCHAR two
ENCODING 50
SWIDTH 512 0
DWIDTH 8 0
BBX 8 10 0 0
BITMAP
00020000
02BD8000
2C31B000
6200B000
0001A000
00066000
000B1000
004A0035
00B79B82
02B61000
ENDCHAR
STARTCHAR three
ENCODING 51
SWIDTH 461 0
DWIDTH 7 0
BBX 7 11 0 0
BITMAP
028CD000
6C30A000
31048000
002C1000
01DC9930
0AA201C0
000000B0
00000490
00004C10
0007C200
003A1000
ENDCHAR
STARTCHAR four
ENCODING 52
SWIDTH 503 0
DWIDTH 8 0
BBX 8 13 0 0
BITMAP
00001400
00008A00
0002EA00
0009AA00
003C2A00
00B22A00
06802B55
3E69BD73
97412A00
00002A00
00002A00
00002A00
00002900
ENDCHAR
STARTCHAR five
ENCODING 53
SWIDTH 478 0
DWIDTH 8 0
BBX 8 11 0 0
BITMAP
360379B3
AFB62000
5C000000
58000000
582BD600
5AA21B00
4B002A00
00008500
0004C000
001D2000
00640000
ENDCHAR
STARTCHAR six
ENCODING 54
SWIDTH 375 0
DWIDTH 6 0
BBX 6 13 0 0
BITMAP
038000
076000
093000
0B0000
0B0000
280000
560021
830AA9
937717
93A072
7A41A0
3F3A30
09E600
ENDCHAR
STARTCHAR seven
ENCODING 55
SWIDTH 458 0
DWIDTH 7 0
BBX 7 12 0 0
BITMAP
00369B90
6BA86B80
00000E20
00002B00
00006600
00008300
0000A000
0000B000
0000C000
0001C000
0000E000
0000B200
ENDCHAR
STARTCHAR eight
ENCODING 56
SWIDTH 333 0
DWIDTH 5 0
BBX 5 12 0 0
BITMAP
000100
02BF60
1A4C90
850080
A20270
750910
0A7A00
01D600
019800
062170
090090
07CB30
ENDCHAR
STARTCHAR nine
ENCODING 57
SWIDTH 475 0
DWIDTH 8 0
BBX 7 11 0 0
BITMAP
0007B910
01B61E60
0A409B80
4906C290
926D1190
BBC200A0
240000B0
000000B0
000000C0
000000C0
000000B0
ENDCHAR
STARTCHAR colon
ENCODING 58
SWIDTH 120 0
DWIDTH 2 0
BBX 2 6 0 1
BITMAP
72
10
00
00
44
10
ENDCHAR
STARTCHAR semicolon
ENCODING 59
SWIDTH 121 0
DWIDTH 2 0
BBX 2 7 0 -2
BITMAP
44
00
00
57
69
66
52
ENDCHAR
STARTCHAR less
ENCODING 60
SWIDTH 409 0
DWIDTH 7 0
BBX 7 8 0 2
BITMAP
00001A40
0002C800
003D6000
05C20000
2E100000
06D50000
002BB400
00005C00
ENDCHAR
STARTCHAR equal
ENCODING 61
SWIDTH 433 0
DWIDTH 7 0
BBX 7 5 0 1
BITMAP
01357700
3CB85100
00003750
269A8510
56100000
ENDCHAR
STARTCHAR greater
ENCODING 62
SWIDTH 450 0
DWIDTH 7 0
BBX 7 9 0 2
BITMAP
15000000
1BC30000
004C9100
00005D20
00000B10
0001B500
003D6000
05E40000
2C200000
ENDCHAR
STARTCHAR question
ENCODING 63
SWIDTH 445 0
DWIDTH 7 0
BBX 7 15 0 0
BITMAP
00379710
5DB535B0
430001A0
00000840
00006A00
0007C100
006C1000
00D10000
00D87100
00164000
00000000
00000000
00000000
00000000
001A0000
ENDCHAR
STARTCHAR at
ENCODING 64
SWIDTH 945 0
DWIDTH 15 0
BBX 15 15 0 0
BITMAP
0000000255200000
000002AB76A80000
00005B3000076000
0005A0000000C100
003A005CC0008400
01B10874A0006600
0850570D90006500
0D01B08590009100
59084480A3058000
860C890028960000
9603400000000000
78000000000008A0
2D1000000003A800
07C3000015A92000
004ACCBBA6100000
ENDCHAR
STARTCHAR A
ENCODING 65
SWIDTH 390 0
DWIDTH 6 0
BBX 8 12 0 0
BITMAP
06800000
08E10000
0AA50000
0C2A0000
0D0A1000
0D067000
1C02D9B8
3C18F300
4FA4A400
68004800
75000B00
52000900
ENDCHAR
STARTCHAR B
ENCODING 66
SWIDTH 537 0
DWIDTH 9 0
BBX 9 12 0 0
BITMAP
0004881000
74B94B3000
6E201B0000
3A00A20000
1A0A899A10
0DAD500A20
0CD1002800
0A5001B100
07401C3000
0561C50000
0388500000
0170000000
ENDCHAR
STARTCHAR C
ENCODING 67
SWIDTH 487 0
DWIDTH 8 0
BBX 8 12 0 0
BITMAP
00069200
00784800
01B00000
07500000
0B100000
1B000000
47000000
75000053
930001D1
93000A60
58019700
0ADB4000
ENDCHAR
STARTCHAR D
ENCODING 68
SWIDTH 554 0
DWIDTH 9 0
BBX 9 12 0 0
BITMAP
0430000000
1BEBBB8200
7B80003B20
0680000570
0580000650
0480000B10
0290005700
019002C000
00A01C3000
00A1C50000
007B600000
0067000000
ENDCHAR
STARTCHAR E
ENCODING 69
SWIDTH 474 0
DWIDTH 8 0
BBX 8 12 0 0
BITMAP
22004720
6A6C9200
3F920000
1B000000
0B000500
0C04B400
0CA71000
0D400000
0D2003B2
0D208A10
0D8B5000
0A810000
ENDCHAR
STARTCHAR F
ENCODING 70
SWIDTH 428 0
DWIDTH 7 0
BBX 7 12 0 0
BITMAP
00000010
54017B40
889B5000
8C400000
87000000
78000120
79006A20
694B6000
5E910000
4A000000
3A000000
08000000
ENDCHAR
STARTCHAR G
ENCODING 71
SWIDTH 591 0
DWIDTH 9 0
BBX 10 13 0 -2
BITMAP
0000153000
0002C93000
001B100000
00A3000000
0490001461
0B1008CE90
2900002F30
750000BF00
A30009BD00
8935B90D00
18CA400E00
0000000E10
0000000710
ENDCHAR
STARTCHAR H
ENCODING 72
SWIDTH 424 0
DWIDTH 7 0
BBX 7 11 0 0
BITMAP
42004200
85006700
75003800
76002A00
66005B00
5704CC00
5CB81B00
4D200B00
48000A20
38000930
38000630
ENDCHAR
STARTCHAR I
ENCODING 73
SWIDTH 153 0
DWIDTH 2 0
BBX 2 12 0 0
BITMAP
29
0B
0C
0C
0C
0C
0C
0C
0C
0C
0C
09
ENDCHAR
STARTCHAR J
ENCODING 74
SWIDTH 371 0
DWIDTH 6 0
BBX 6 13 0 -1
BITMAP
000120
000380
0002A0
0001C0
0000E0
0000C2
0000A3
000085
000075
200066
700066
480084
059990
ENDCHAR
STARTCHAR K
ENCODING 75
SWIDTH 524 0
DWIDTH 8 0
BBX 9 11 0 0
BITMAP
6300000000
57001B1000
3900960000
1A05A00000
0C1C100000
0C85000000
0CB0000000
0B80000000
0ADCBBAA20
0750000000
0450000000
ENDCHAR
STARTCHAR L
ENCODING 76
SWIDTH 537 0
DWIDTH 9 0
BBX 9 10 0 0
BITMAP
7800000000
7900000000
6900000000
6A00000000
5A00000000
5B00000000
4C00001640
4C0018B610
4D39C50000
3EC5000000
ENDCHAR
STARTCHAR M
ENCODING 77
SWIDTH 682 0
DWIDTH 11 0
BBX 11 13 0 0
BITMAP
110000001000
7E300000D100
5CC00003E200
389500089400
192C000A6500
1A0950384600
0B02C0833700
0C0095B02900
0E002E700A00
0E1006100B00
0E2000000C00
0D3000000B30
0C3000000940
ENDCHAR
STARTCHAR N
ENCODING 78
SWIDTH 541 0
DWIDTH 9 0
BBX 8 13 0 0
BITMAP
00000010
000000A3
20000076
7B000067
6F900058
4BC50048
2A2D2048
1B04C039
0C006849
0C000A9A
0B2001CB
0940003F
07300002
ENDCHAR
STARTCHAR O
ENCODING 79
SWIDTH 382 0
DWIDTH 6 0
BBX 6 11 0 0
BITMAP
004A60
03D5A6
0A302B
1D001D
59000D
85002C
A2004A
B10086
A200D1
692970
0BE700
ENDCHAR
STARTCHAR P
ENCODING 80
SWIDTH 508 0
DWIDTH 8 0
BBX 8 13 0 0
BITMAP
0537BB81
2EB41299
6E20001B
0C1000A5
0C001B70
0C16D500
0CD81000
0C300000
0B300000
0A300000
09300000
07300000
06300000
ENDCHAR
STARTCHAR Q
ENCODING 81
SWIDTH 512 0
DWIDTH 8 0
BBX 8 12 0 0
BITMAP
01DCCD20
08C101A0
0D200081
2B000064
58000055
74000055
84008554
84002B72
66000AD0
2A0006C0
0A301AC4
01ACB227
ENDCHAR
STARTCHAR R
ENCODING 82
SWIDTH 503 0
DWIDTH 8 0
BBX 8 13 0 0
BITMAP
46003300
6A7CAAD5
6E500078
69000690
5802A600
589A2000
5E500000
5F920000
578D8100
55017D82
5500016B
55000000
44000000
ENDCHAR
STARTCHAR S
ENCODING 83
SWIDTH 541 0
DWIDTH 9 0
BBX 9 12 0 0
BITMAP
0000585000
004A573000
05A0000000
2C00000000
9400000000
C100000000
6910000000
038AAA8300
0000013C30
0000018B10
0026BB4000
0196200000
ENDCHAR
STARTCHAR T
ENCODING 84
SWIDTH 595 0
DWIDTH 10 0
BBX 12 12 0 0
BITMAP
000004001241
02469FCCCA50
8B853F000000
00000C000000
00000B100000
000009300000
000008500000
000007700000
000005900000
000003B00000
000001C00000
000000B00000
ENDCHAR
STARTCHAR U
ENCODING 85
SWIDTH 450 0
DWIDTH 7 0
BBX 7 12 0 -2
BITMAP
33000380
870006A0
770009A0
77000B90
67000E80
67002F70
57006B80
4700B490
1C1671A0
06C800B0
000000B0
00000070
ENDCHAR
STARTCHAR V
ENCODING 86
SWIDTH 524 0
DWIDTH 8 0
BBX 8 12 0 0
BITMAP
00000006
0000001C
40000049
96000076
2D0000B3
0A6000E0
03D003B0
00B50780
004C0B50
000C4E10
0005DD00
00009900
ENDCHAR
STARTCHAR W
ENCODING 87
SWIDTH 878 0
DWIDTH 14 0
BBX 14 13 0 -1
BITMAP
00000000000055
00000000000094
7500003D0000C0
6B00006E4001B0
0D1000A7900570
095001A1D00940
05A00560B30C00
01E00A10581B00
00D41B000C6800
0099570005E400
004EB30000C100
000CD000000000
00011000000000
ENDCHAR
STARTCHAR X
ENCODING 88
SWIDTH 461 0
DWIDTH 7 0
BBX 7 12 0 0
BITMAP
00000010
030001A0
1D100840
08702A00
01D0A300
009A9000
003F2000
006F6000
01C2C000
0A406700
5A000C10
21000750
ENDCHAR
STARTCHAR Y
ENCODING 89
SWIDTH 483 0
DWIDTH 8 0
BBX 8 13 0 0
BITMAP
00000021
00000074
100000A1
930001B0
2D100670
06B00B20
008A2C00
000AE700
0001F100
0003B000
00076000
000C1000
000A0000
ENDCHAR
STARTCHAR Z
ENCODING 90
SWIDTH 670 0
DWIDTH 11 0
BBX 11 11 0 0
BITMAP
4AAAABCDB000
0000001D6000
000000A90000
000007B00000
00004D100000
0002D3000000
000C60000000
009900000000
06B000000000
3E4333334520
8FEDDCCCBA30
ENDCHAR
STARTCHAR bracketleft
ENCODING 91
SWIDTH 470 0
DWIDTH 8 0
BBX 7 20 0 -2
BITMAP
59AAA820
96000000
75000000
66000000
56000000
37000000
29000000
1A000000
0B000000
0B000000
0C000000
0B100000
09200000
08300000
07400000
06400000
06500000
06600040
06C9BA70
02840000
ENDCHAR
STARTCHAR backslash
ENCODING 92
SWIDTH 554 0
DWIDTH 9 0
BBX 9 17 0 0
BITMAP
1000000000
A500000000
2C00000000
0750000000
01B0000000
0084000000
001B000000
0009400000
0003B00000
0000B30000
00004B0000
00000C3000
000005A000
000000D300
0000007A00
0000001E20
0000000880
ENDCHAR
STARTCHAR bracketright
ENCODING 93
SWIDTH 512 0
DWIDTH 8 0
BBX 8 21 0 -2
BITMAP
589ABCC2
665211F1
000000F0
000000E0
000000E0
000000E0
000000E0
000000D0
000000C1
000000B2
000000A2
000000A3
00000094
00000085
00000076
00000077
00000068
00000069
0000006A
000148DB
00058630
ENDCHAR
STARTCHAR asciicircum
ENCODING 94
SWIDTH 390 0
DWIDTH 6 0
BBX 6 5 0 10
BITMAP
009500
03A940
0A20B2
47002C
300000
ENDCHAR
STARTCHAR underscore
ENCODING 95
SWIDTH 612 0
DWIDTH 10 0
BBX 10 3 0 0
BITMAP
00000147B4
0148CEC850
8DA6300000
ENDCHAR
STARTCHAR grave
ENCODING 96
SWIDTH 155 0
DWIDTH 2 0
BBX 2 3 0 9
BITMAP
71
6A
05
ENDCHAR
STARTCHAR a
ENCODING 97
SWIDTH 366 0
DWIDTH 6 0
BBX 6 9 0 0
BITMAP
001870
00BAE0
06B1E0
0D35E0
5A0CE1
A45A83
C1D265
CB7056
780025
ENDCHAR
STARTCHAR b
ENCODING 98
SWIDTH 442 0
DWIDTH 7 0
BBX 7 14 0 0
BITMAP
14000000
3C000000
3B000000
4B000000
4A000000
49002100
482CDE20
5AC40770
5F400480
59000960
66004E10
6505E400
67AD3000
5D700000
ENDCHAR
STARTCHAR c
ENCODING 99
SWIDTH 390 0
DWIDTH 6 0
BBX 6 10 0 0
BITMAP
005300
08AC00
1D0C00
490300
660000
840000
930018
740058
3901C2
08CB30
ENDCHAR
STARTCHAR d
ENCODING 100
SWIDTH 316 0
DWIDTH 5 0
BBX 5 16 0 -2
BITMAP
000750
000750
000650
000550
000450
003660
0ACD60
4D1660
960660
B10860
B00C70
B02C70
C1A470
7C4270
000270
000020
ENDCHAR
STARTCHAR e
ENCODING 101
SWIDTH 461 0
DWIDTH 7 0
BBX 8 9 -1 0
BITMAP
00016400
001D8B70
00881A70
01E8B500
08F70001
1BB0003D
029001C4
00A01B50
007CB300
ENDCHAR
STARTCHAR f
ENCODING 102
SWIDTH 345 0
DWIDTH 6 0
BBX 6 15 0 0
BITMAP
002200
00DE20
03D370
05A010
079000
087000
086011
0889E2
2CB620
596000
057000
049000
03B000
02B000
01A000
ENDCHAR
STARTCHAR g
ENCODING 103
SWIDTH 437 0
DWIDTH 7 0
BBX 7 16 0 -7
BITMAP
0006B700
00988E00
0480BF00
0B139E10
480A3D30
833B0D40
B3C30C50
6F700B60
01000A70
00000B60
00000B40
00000D10
00002B00
00009500
0018B000
05C91000
ENDCHAR
STARTCHAR h
ENCODING 104
SWIDTH 466 0
DWIDTH 7 0
BBX 8 13 0 -1
BITMAP
53000000
75000000
76000000
76000000
7601AC70
771DB3E0
777D10E0
77D400E0
7BB000D0
7F4000D1
7C0000D1
540000C1
00000010
ENDCHAR
STARTCHAR i
ENCODING 105
SWIDTH 132 0
DWIDTH 2 0
BBX 2 12 0 0
BITMAP
71
10
00
66
77
77
76
76
66
66
67
57
ENDCHAR
STARTCHAR j
ENCODING 106
SWIDTH 112 0
DWIDTH 2 0
BBX 5 19 -3 -6
BITMAP
000520
000000
000000
000000
000100
000840
000840
000840
000850
000760
000670
000580
000490
0003A0
0002A0
000490
830760
1A7D10
004300
ENDCHAR
STARTCHAR k
ENCODING 107
SWIDTH 428 0
DWIDTH 7 0
BBX 7 14 0 -1
BITMAP
02000000
2B000000
3C000000
4B000220
4B001D40
5A008C00
5903F300
681D7000
68B90000
7E900000
7F700000
877CA610
84004A30
40000000
ENDCHAR
STARTCHAR l
ENCODING 108
SWIDTH 137 0
DWIDTH 2 0
BBX 2 14 0 0
BITMAP
51
83
64
55
46
37
28
29
29
1A
2A
2B
3B
27
ENDCHAR
STARTCHAR m
ENCODING 109
SWIDTH 579 0
DWIDTH 9 0
BBX 9 10 0 0
BITMAP
4300000000
7600001000
574910CB00
48BF65CE10
38D68A3C20
3AB1CC0A30
2E70D80930
1F40A40940
1F10100790
0B00000140
ENDCHAR
STARTCHAR n
ENCODING 110
SWIDTH 483 0
DWIDTH 8 0
BBX 8 10 0 0
BITMAP
10001300
8403EE40
760C52A0
684C00C0
5A8600E0
4BB100D1
3DC000C1
2F8000B2
1F5000A2
0D200061
ENDCHAR
STARTCHAR o
ENCODING 111
SWIDTH 266 0
DWIDTH 4 0
BBX 4 9 0 0
BITMAP
0990
2C77
560B
830B
A30C
B30D
A33A
95B4
5E60
ENDCHAR
STARTCHAR p
ENCODING 112
SWIDTH 482 0
DWIDTH 8 0
BBX 8 14 0 -5
BITMAP
21000000
8506BAA2
87B50096
8D1001D1
76002C40
7505D400
68AD2000
6F910000
67000000
56000000
65000000
74000000
84000000
31000000
ENDCHAR
STARTCHAR q
ENCODING 113
SWIDTH 408 0
DWIDTH 7 0
BBX 7 13 0 -5
BITMAP
00045000
008AA400
06909600
1C00B800
6601CA00
93086C00
877B0C00
15400B20
00000940
00000760
00000580
000003A0
00000140
ENDCHAR
STARTCHAR r
ENCODING 114
SWIDTH 396 0
DWIDTH 6 0
BBX 6 9 0 0
BITMAP
000011
831CDA
759800
47D100
29D000
0BC000
0CB000
0AA000
068000
ENDCHAR
STARTCHAR s
ENCODING 115
SWIDTH 366 0
DWIDTH 6 0
BBX 6 9 0 -1
BITMAP
019BA0
0B4000
680000
940361
6ECAB8
010077
0008B0
02CA10
014000
ENDCHAR
STARTCHAR t
ENCODING 116
SWIDTH 268 0
DWIDTH 4 0
BBX 6 14 -1 -1
BITMAP
001000
00D000
00C000
00C000
01D8C4
3BE930
59B000
02C000
01D000
00D000
00D000
00D000
00C000
003000
ENDCHAR
STARTCHAR u
ENCODING 117
SWIDTH 387 0
DWIDTH 6 0
BBX 6 9 0 -1
BITMAP
530072
7500B2
6600B2
6700C2
5801E2
4906F3
1B2EB5
0AE559
001002
ENDCHAR
STARTCHAR v
ENCODING 118
SWIDTH 354 0
DWIDTH 6 0
BBX 6 9 0 0
BITMAP
000071
0000C3
8200C3
6B00C3
0C40D2
04C0E1
00A8F0
002EF0
0005E0
ENDCHAR
STARTCHAR w
ENCODING 119
SWIDTH 566 0
DWIDTH 9 0
BBX 9 9 0 0
BITMAP
0001100100
7407B00830
3A09C50850
0C1A4C1840
077C258850
02DD20BA60
00BF103F60
005E000970
000B000000
ENDCHAR
STARTCHAR x
ENCODING 120
SWIDTH 454 0
DWIDTH 7 0
BBX 7 12 0 -2
BITMAP
00036000
0005A000
42068000
7B075000
099A3000
009F2000
004FC100
00777B10
00B405B0
00E10030
02C00000
00100000
ENDCHAR
STARTCHAR y
ENCODING 121
SWIDTH 363 0
DWIDTH 6 0
BBX 6 15 0 -6
BITMAP
000012
200047
880057
1D2067
05A076
00B586
002EB6
0007F5
0000D4
000093
0000B2
0000C1
0000C0
0000C0
0000C0
ENDCHAR
STARTCHAR z
ENCODING 122
SWIDTH 618 0
DWIDTH 10 0
BBX 11 9 0 -1
BITMAP
00039E400000
38CA5E200000
25107B000000
0000D2000000
000680000000
000C10000200
003C259CED20
006EC9641000
001000000000
ENDCHAR
STARTCHAR braceleft
ENCODING 123
SWIDTH 348 0
DWIDTH 6 0
BBX 6 16 0 -2
BITMAP
004860
05C344
0B2000
0A1000
048000
00D100
7D5000
0A2000
27B000
BC2000
C10000
C00000
A30000
4C2000
07E920
001410
ENDCHAR
STARTCHAR bar
ENCODING 124
SWIDTH 137 0
DWIDTH 2 0
BBX 2 14 0 0
BITMAP
51
83
64
55
46
37
28
29
29
1A
2A
2B
3B
27
ENDCHAR
STARTCHAR braceright
ENCODING 125
SWIDTH 348 0
DWIDTH 6 0
BBX 5 16 0 -2
BITMAP
031000
A6C400
002D00
000C00
002900
00A200
008A60
000940
005800
004DA0
0002D0
0000B0
0000C0
000590
028E20
0A8200
ENDCHAR
STARTCHAR asciitilde
ENCODING 126
SWIDTH 458 0
DWIDTH 7 0
BBX 7 4 0 8
BITMAP
02620010
2C6D0A70
3408DB10
00002000
ENDCHAR
STARTCHAR nonbreakingspace
ENCODING 160
SWIDTH 450 0
DWIDTH 7 0
BBX 1 1 0 0
BITMAP
00
ENDCHAR
STARTCHAR exclamdown
ENCODING 161
SWIDTH 137 0
DWIDTH 2 0
BBX 2 11 0 -3
BITMAP
05
00
00
00
63
93
82
82
82
72
21
ENDCHAR
STARTCHAR cent
ENCODING 162
SWIDTH 394 0
DWIDTH 6 0
BBX 6 13 0 -1
BITMAP
001000
009300
009500
08CE60
1D47A0
492600
661700
841700
930818
740868
3909C2
08CD40
002A00
ENDCHAR
STARTCHAR sterling
ENCODING 163
SWIDTH 539 0
DWIDTH 9 0
BBX 9 12 0 -1
BITMAP
0000179200
0003C54900
001C100000
0066000000
47DBA40000
57D1000000
03A0000000
0480000000
0580000000
0573BDB600
03D9303810
0020000000
ENDCHAR
STARTCHAR currency
ENCODING 164
SWIDTH 500 0
DWIDTH 8 0
BBX 7 10 0 1
BITMAP
00000240
01601880
01EDEE20
00C44A00
00C00B00
00B00B00
00C05B00
06DAE800
2D265C00
35000200
ENDCHAR
STARTCHAR yen
ENCODING 165
SWIDTH 478 0
DWIDTH 8 0
BBX 7 13 0 0
BITMAP
04200690
05C00E60
00E46C00
008CC300
002FB000
00097000
00076220
08CEFD60
02396100
1ABDCA20
00085000
00095000
00073000
ENDCHAR
STARTCHAR brokenbar
ENCODING 166
SWIDTH 137 0
DWIDTH 2 0
BBX 2 14 0 0
BITMAP
51
83
64
56
47
25
13
19
1A
1A
1B
2B
3B
27
ENDCHAR
STARTCHAR section
ENCODING 167
SWIDTH 366 0
DWIDTH 6 0
BBX 6 13 0 -1
BITMAP
007B80
0B4000
770000
B20130
9BBCE5
1E3096
6804B0
946D71
6FEAB8
010077
0008B0
02CA10
014000
ENDCHAR
STARTCHAR dieresis
ENCODING 168
SWIDTH 306 0
DWIDTH 5 0
BBX 4 2 1 10
BITMAP
C1B2
1010
ENDCHAR
STARTCHAR copyright
ENCODING 169
SWIDTH 485 0
DWIDTH 8 0
BBX 8 11 0 0
BITMAP
0007B800
00A937A0
069330C3
0C4BD197
39942178
74C10087
A2C008F4
B1789DD0
A2065B40
6924B700
0BFC4000
ENDCHAR
STARTCHAR ordfeminine
ENCODING 170
SWIDTH 227 0
DWIDTH 4 0
BBX 4 5 0 2
BITMAP
0010
08B0
64C0
8772
9423
ENDCHAR
STARTCHAR guillemotleft
ENCODING 171
SWIDTH 652 0
DWIDTH 10 0
BBX 10 9 0 2
BITMAP
0000000011
00001A42C3
0002C83D50
003D66D300
05C28A1000
2E12E20000
06D54D7000
002BB59D70
00005C0390
ENDCHAR
STARTCHAR logicalnot
ENCODING 172
SWIDTH 539 0
DWIDTH 9 0
BBX 7 5 1 2
BITMAP
01234540
899888B0
000000B0
000000C0
000000A0
ENDCHAR
STARTCHAR uni00AD
ENCODING 173
SWIDTH 399 0
DWIDTH 6 0
BBX 6 3 0 3
BITMAP
000002
0028EB
7CA510
ENDCHAR
STARTCHAR registered
ENCODING 174
SWIDTH 382 0
DWIDTH 6 0
BBX 8 11 0 0
BITMAP
00068300
00AA9D40
063002C0
0BA88894
49B14967
75BA8078
A2AB6096
B1A06BD2
A2500790
6A117C10
0BFD8100
ENDCHAR
STARTCHAR macron
ENCODING 175
SWIDTH 399 0
DWIDTH 6 0
BBX 6 2 0 10
BITMAP
478ACC
343200
ENDCHAR
STARTCHAR degree
ENCODING 176
SWIDTH 201 0
DWIDTH 3 0
BBX 3 3 0 6
BITMAP
2950
8290
4860
ENDCHAR
STARTCHAR plusminus
ENCODING 177
SWIDTH 466 0
DWIDTH 7 0
BBX 6 8 0 1
BITMAP
002600
003700
003700
003BAA
6ACB10
103A00
001B45
1AA987
ENDCHAR
STARTCHAR twosuperior
ENCODING 178
SWIDTH 318 0
DWIDTH 5 0
BBX 5 6 0 2
BITMAP
001000
289000
307000
007000
044230
096400
ENDCHAR
STARTCHAR threesuperior
ENCODING 179
SWIDTH 280 0
DWIDTH 4 0
BBX 5 7 0 3
BITMAP
003000
669000
026000
1C6710
010510
003700
037000
ENDCHAR
STARTCHAR acute
ENCODING 180
SWIDTH 155 0
DWIDTH 2 0
BBX 3 3 0 9
BITMAP
0510
5D10
5100
ENDCHAR
STARTCHAR mu
ENCODING 181
SWIDTH 387 0
DWIDTH 6 0
BBX 6 11 0 -2
BITMAP
420051
7500B3
8600B4
8700C4
8700E4
8805F5
8A1DD6
8ED755
842000
910000
810000
ENDCHAR
STARTCHAR paragraph
ENCODING 182
SWIDTH 447 0
DWIDTH 7 0
BBX 7 11 0 0
BITMAP
00013200
08EFFF20
6FFFC730
9FFEC730
3972D740
0000D740
0000D750
0000D660
0000C660
0000B570
00008250
ENDCHAR
STARTCHAR periodcentered
ENCODING 183
SWIDTH 128 0
DWIDTH 2 0
BBX 2 2 0 3
BITMAP
44
42
ENDCHAR
STARTCHAR cedilla
ENCODING 184
SWIDTH 322 0
DWIDTH 5 0
BBX 4 6 1 -5
BITMAP
6000
C000
DB20
27E4
03C9
AB82
ENDCHAR
STARTCHAR onesuperior
ENCODING 185
SWIDTH 112 0
DWIDTH 2 0
BBX 2 6 0 2
BITMAP
30
71
82
82
73
53
ENDCHAR
STARTCHAR ordmasculine
ENCODING 186
SWIDTH 212 0
DWIDTH 3 0
BBX 4 5 0 2
BITMAP
1620
6581
A073
A0A1
8850
ENDCHAR
STARTCHAR guillemotright
ENCODING 187
SWIDTH 625 0
DWIDTH 10 0
BBX 10 9 0 2
BITMAP
1502810000
1BC49D5000
004C94AC30
00005D23D2
00000B12B0
0001B53C20
003D66D300
05E48C2000
2C23900000
ENDCHAR
STARTCHAR onequarter
ENCODING 188
SWIDTH 678 0
DWIDTH 11 0
BBX 11 14 0 -2
BITMAP
000020000000
0001B0000000
000570000000
200920031000
710B002E4000
714800BB4000
828308584000
82B067086410
7597D67B7300
5A4100084000
0A0000084000
1A0000073000
550000000000
110000000000
ENDCHAR
STARTCHAR onehalf
ENCODING 189
SWIDTH 693 0
DWIDTH 11 0
BBX 10 14 0 -2
BITMAP
0000020000
0000480000
1300830000
2600B00000
2602900000
2607469100
270B945400
171B305400
0765008100
00A1019000
00A0074584
04600B7300
0920000000
0200000000
ENDCHAR
STARTCHAR threequarters
ENCODING 190
SWIDTH 868 0
DWIDTH 14 0
BBX 12 14 0 -2
BITMAP
000000001000
00020000B100
079A5001B600
34071006C900
0067000BD900
05E7770F4900
02100A6F0900
000038F67D91
0005A4F41900
005803800900
000008300900
00000B000800
000029000000
000002000000
ENDCHAR
STARTCHAR questiondown
ENCODING 191
SWIDTH 541 0
DWIDTH 9 0
BBX 8 14 1 -1
BITMAP
00056000
00000000
00000000
00000000
00000000
008BB100
0000B500
0005C100
006D2000
06B10000
2B000000
84000271
7A67BC70
03541000
ENDCHAR
STARTCHAR Agrave
ENCODING 192
SWIDTH 390 0
DWIDTH 6 0
BBX 8 14 0 0
BITMAP
01800000
00B40000
03C40000
05F40000
07A90000
085A0000
0A465000
0B22A000
0D10D8BA
0E05F600
1FB67700
2C001B00
48000B00
34000630
ENDCHAR
STARTCHAR Aacute
ENCODING 193
SWIDTH 390 0
DWIDTH 6 0
BBX 8 15 0 0
BITMAP
00600000
08A00000
06000000
06800000
08E10000
0AA50000
0C2A0000
0D0A1000
0D067000
1C02D9B8
3C18F300
4FA4A400
68004800
75000B00
52000900
ENDCHAR
STARTCHAR Acircumflex
ENCODING 194
SWIDTH 390 0
DWIDTH 6 0
BBX 9 16 -1 0
BITMAP
0087000000
02B8500000
0920A30000
39001C0000
2168000000
008E100000
00AA500000
00C2A00000
00D0A10000
00D0670000
01C02D9B80
03C18F3000
04FA4A4000
0680048000
075000B000
0520009000
ENDCHAR
STARTCHAR Atilde
ENCODING 195
SWIDTH 390 0
DWIDTH 6 0
BBX 9 17 -1 0
BITMAP
0163001000
0D6D27B000
1605DC2000
0000100000
0000000000
0068000000
008E100000
00AA500000
00C2A00000
00D0A10000
00D0670000
01C02D9B80
03C18F3000
04FA4A4000
0680048000
075000B000
0520009000
ENDCHAR
STARTCHAR Adieresis
ENCODING 196
SWIDTH 390 0
DWIDTH 6 0
BBX 8 14 0 0
BITMAP
1C1C0000
01010000
06800000
08E10000
0AA50000
0C2A0000
0D0A1000
0D067000
1C02D9B8
3C18F300
4FA4A400
68004800
75000B00
52000900
ENDCHAR
STARTCHAR Aring
ENCODING 197
SWIDTH 390 0
DWIDTH 6 0
BBX 8 15 0 0
BITMAP
01100000
9BB70000
D13B0000
4CC20000
08E10000
0AA50000
0C2A0000
0D0A1000
0D067000
1C02D9B8
3C18F300
4FA4A400
68004800
75000B00
52000900
ENDCHAR
STARTCHAR AE
ENCODING 198
SWIDTH 708 0
DWIDTH 11 0
BBX 11 12 0 0
BITMAP
068031015810
08E1888D7100
0AA56E710000
0C2A48000000
0D0A49001500
0D068A178100
1C02EEB30000
3C18FF000000
4FA4AE0006B0
68004E01A700
75001F8B3000
520009600000
ENDCHAR
STARTCHAR Ccedilla
ENCODING 199
SWIDTH 487 0
DWIDTH 8 0
BBX 8 18 0 -6
BITMAP
00069200
00784800
01B00000
07500000
0B100000
1B000000
47000000
75000053
930001D1
93000A60
58019700
0ADB4000
00830000
008A1000
0029E500
00005F00
005CE800
00010000
ENDCHAR
STARTCHAR Egrave
ENCODING 200
SWIDTH 474 0
DWIDTH 8 0
BBX 8 15 0 0
BITMAP
00800000
00970000
00040000
22004720
6A6C9200
3F920000
1B000000
0B000500
0C04B400
0CA71000
0D400000
0D2003B2
0D208A10
0D8B5000
0A810000
ENDCHAR
STARTCHAR Eacute
ENCODING 201
SWIDTH 474 0
DWIDTH 8 0
BBX 8 14 0 0
BITMAP
00015000
000C6000
22154720
6A6C9200
3F920000
1B000000
0B000500
0C04B400
0CA71000
0D400000
0D2003B2
0D208A10
0D8B5000
0A810000
ENDCHAR
STARTCHAR Ecircumflex
ENCODING 202
SWIDTH 474 0
DWIDTH 8 0
BBX 8 17 0 0
BITMAP
000B3000
0067B100
01B02B10
07400490
03000000
22004720
6A6C9200
3F920000
1B000000
0B000500
0C04B400
0CA71000
0D400000
0D2003B2
0D208A10
0D8B5000
0A810000
ENDCHAR
STARTCHAR Edieresis
ENCODING 203
SWIDTH 474 0
DWIDTH 8 0
BBX 8 14 0 0
BITMAP
01C1C100
00101000
22004720
6A6C9200
3F920000
1B000000
0B000500
0C04B400
0CA71000
0D400000
0D2003B2
0D208A10
0D8B5000
0A810000
ENDCHAR
STARTCHAR Igrave
ENCODING 204
SWIDTH 153 0
DWIDTH 2 0
BBX 2 15 0 0
BITMAP
71
6A
05
29
0B
0C
0C
0C
0C
0C
0C
0C
0C
0C
09
ENDCHAR
STARTCHAR Iacute
ENCODING 205
SWIDTH 153 0
DWIDTH 2 0
BBX 3 15 0 0
BITMAP
0330
2D30
3300
2900
0B00
0C00
0C00
0C00
0C00
0C00
0C00
0C00
0C00
0C00
0900
ENDCHAR
STARTCHAR Icircumflex
ENCODING 206
SWIDTH 153 0
DWIDTH 2 0
BBX 7 16 -2 0
BITMAP
004A0000
00B69000
06607700
0B000A40
12290000
000B0000
000C0000
000C0000
000C0000
000C0000
000C0000
000C0000
000C0000
000C0000
000C0000
00090000
ENDCHAR
STARTCHAR Idieresis
ENCODING 207
SWIDTH 153 0
DWIDTH 2 0
BBX 4 14 -1 0
BITMAP
2C1C
0101
0290
00B0
00C0
00C0
00C0
00C0
00C0
00C0
00C0
00C0
00C0
0090
ENDCHAR
STARTCHAR Eth
ENCODING 208
SWIDTH 554 0
DWIDTH 9 0
BBX 9 12 0 0
BITMAP
0430000000
1BEBBB8200
7B80003B20
0680000570
0580000650
0480000B10
0390005700
02B422C000
6CFC5C3000
01A1C50000
007B600000
0067000000
ENDCHAR
STARTCHAR Ntilde
ENCODING 209
SWIDTH 541 0
DWIDTH 9 0
BBX 8 16 0 0
BITMAP
02630010
2D6E1980
3507DB10
00001010
000000A3
20000076
7B000067
6F900058
4BC50048
2A2D2048
1B04C039
0C006849
0C000A9A
0B2001CB
0940003F
07300002
ENDCHAR
STARTCHAR Ograve
ENCODING 210
SWIDTH 382 0
DWIDTH 6 0
BBX 6 14 0 0
BITMAP
000620
0004C0
000050
004A60
03D5A6
0A302B
1D001D
59000D
85002C
A2004A
B10086
A200D1
692970
0BE700
ENDCHAR
STARTCHAR Oacute
ENCODING 211
SWIDTH 382 0
DWIDTH 6 0
BBX 6 14 0 0
BITMAP
000600
00A800
006000
004A60
03D5A6
0A302B
1D001D
59000D
85002C
A2004A
B10086
A200D1
692970
0BE700
ENDCHAR
STARTCHAR Ocircumflex
ENCODING 212
SWIDTH 382 0
DWIDTH 6 0
BBX 6 15 0 0
BITMAP
00A400
058A20
0B11B1
65003B
304A60
03D5A6
0A302B
1D001D
59000D
85002C
A2004A
B10086
A200D1
692970
0BE700
ENDCHAR
STARTCHAR Otilde
ENCODING 213
SWIDTH 382 0
DWIDTH 6 0
BBX 7 15 0 0
BITMAP
02630010
1D6E18A0
2605DC10
00001000
004A6000
03D5A600
0A302B00
1D001D00
59000D00
85002C00
A2004A00
B1008600
A200D100
69297000
0BE70000
ENDCHAR
STARTCHAR Odieresis
ENCODING 214
SWIDTH 382 0
DWIDTH 6 0
BBX 6 13 0 0
BITMAP
008677
000000
004A60
03D5A6
0A302B
1D001D
59000D
85002C
A2004A
B10086
A200D1
692970
0BE700
ENDCHAR
STARTCHAR multiply
ENCODING 215
SWIDTH 454 0
DWIDTH 7 0
BBX 5 6 1 2
BITMAP
500020
570950
0AA800
07E100
493900
710B10
ENDCHAR
STARTCHAR Oslash
ENCODING 216
SWIDTH 382 0
DWIDTH 6 0
BBX 6 14 0 -2
BITMAP
000011
004BD1
03D6F6
0A359B
1D092D
590B0D
85472C
A2834A
B1B086
A490D1
6D5970
0EE700
190000
020000
ENDCHAR
STARTCHAR Ugrave
ENCODING 217
SWIDTH 450 0
DWIDTH 7 0
BBX 7 15 0 -2
BITMAP
00630000
003C0000
00040000
33000380
870006A0
770009A0
77000B90
67000E80
67002F70
57006B80
4700B490
1C1671A0
06C800B0
000000B0
00000070
ENDCHAR
STARTCHAR Uacute
ENCODING 218
SWIDTH 450 0
DWIDTH 7 0
BBX 7 14 0 -2
BITMAP
00006000
00098000
33060380
870006A0
770009A0
77000B90
67000E80
67002F70
57006B80
4700B490
1C1671A0
06C800B0
000000B0
00000070
ENDCHAR
STARTCHAR Ucircumflex
ENCODING 219
SWIDTH 450 0
DWIDTH 7 0
BBX 7 17 0 -2
BITMAP
004A0000
00B69000
05607700
0B000A40
13000000
33000380
870006A0
770009A0
77000B90
67000E80
67002F70
57006B80
4700B490
1C1671A0
06C800B0
000000B0
00000070
ENDCHAR
STARTCHAR Udieresis
ENCODING 220
SWIDTH 450 0
DWIDTH 7 0
BBX 7 14 0 -2
BITMAP
00C1B200
00101000
33000380
870006A0
770009A0
77000B90
67000E80
67002F70
57006B80
4700B490
1C1671A0
06C800B0
000000B0
00000070
ENDCHAR
STARTCHAR Yacute
ENCODING 221
SWIDTH 483 0
DWIDTH 8 0
BBX 8 16 0 0
BITMAP
00003300
0003D200
00043000
00000021
00000074
100000A1
930001B0
2D100670
06B00B20
008A2C00
000AE700
0001F100
0003B000
00076000
000C1000
000A0000
ENDCHAR
STARTCHAR Thorn
ENCODING 222
SWIDTH 398 0
DWIDTH 6 0
BBX 6 13 0 0
BITMAP
390000
490000
570461
58BBAB
6F500C
7B000D
77003C
7602C3
877B20
8E6000
860000
770000
440000
ENDCHAR
STARTCHAR germandbls
ENCODING 223
SWIDTH 537 0
DWIDTH 9 0
BBX 9 12 0 0
BITMAP
0004881000
74B94B3000
6E201B0000
3A00A20000
1A0A899A10
0DAD500A20
0CD1002800
0A5001B100
07401C3000
0561C50000
0388500000
0170000000
ENDCHAR
STARTCHAR agrave
ENCODING 224
SWIDTH 366 0
DWIDTH 6 0
BBX 6 12 0 0
BITMAP
027000
00C300
002300
001870
00BAE0
06B1E0
0D35E0
5A0CE1
A45A83
C1D265
CB7056
780025
ENDCHAR
STARTCHAR aacute
ENCODING 225
SWIDTH 366 0
DWIDTH 6 0
BBX 6 12 0 0
BITMAP
000510
004D10
005100
001870
00BAE0
06B1E0
0D35E0
5A0CE1
A45A83
C1D265
CB7056
780025
ENDCHAR
STARTCHAR acircumflex
ENCODING 226
SWIDTH 366 0
DWIDTH 6 0
BBX 6 15 0 0
BITMAP
00B300
077B10
1B02B1
840049
300000
000000
001870
00BAE0
06B1E0
0D35E0
5A0CE1
A45A83
C1D265
CB7056
780025
ENDCHAR
STARTCHAR atilde
ENCODING 227
SWIDTH 366 0
DWIDTH 6 0
BBX 7 13 0 0
BITMAP
03610110
5B8B0D40
520BD800
00001000
00187000
00BAE000
06B1E000
0D35E000
5A0CE100
A45A8300
C1D26500
CB705600
78002500
ENDCHAR
STARTCHAR adieresis
ENCODING 228
SWIDTH 366 0
DWIDTH 6 0
BBX 6 12 0 0
BITMAP
076770
000000
000000
001870
00BAE0
06B1E0
0D35E0
5A0CE1
A45A83
C1D265
CB7056
780025
ENDCHAR
STARTCHAR aring
ENCODING 229
SWIDTH 366 0
DWIDTH 6 0
BBX 6 11 0 0
BITMAP
02AB80
0950D1
04BBD0
00BAE0
06B1E0
0D35E0
5A0CE1
A45A83
C1D265
CB7056
780025
ENDCHAR
STARTCHAR ae
ENCODING 230
SWIDTH 705 0
DWIDTH 11 0
BBX 11 9 0 0
BITMAP
0018707DB200
00BAE5C17900
06B1EC46B200
0D35FFD60000
5A0CFC100080
A45A99000890
C1D269005B10
CB705D59A100
780027740000
ENDCHAR
STARTCHAR ccedilla
ENCODING 231
SWIDTH 390 0
DWIDTH 6 0
BBX 6 15 0 -5
BITMAP
005300
08AC00
1D0C00
490300
660000
840000
930018
740058
3901C2
09DB30
048000
03E700
004AC1
0004E4
02CB70
ENDCHAR
STARTCHAR egrave
ENCODING 232
SWIDTH 461 0
DWIDTH 7 0
BBX 8 12 -1 0
BITMAP
00054000
0002D100
00003100
00016400
001D8B70
00881A70
01E8B500
08F70001
1BB0003D
029001C4
00A01B50
007CB300
ENDCHAR
STARTCHAR eacute
ENCODING 233
SWIDTH 461 0
DWIDTH 7 0
BBX 8 12 -1 0
BITMAP
00000600
00008A00
00006000
00016400
001D8B70
00881A70
01E8B500
08F70001
1BB0003D
029001C4
00A01B50
007CB300
ENDCHAR
STARTCHAR ecircumflex
ENCODING 234
SWIDTH 461 0
DWIDTH 7 0
BBX 8 15 -1 0
BITMAP
0003B100
000A6A00
00480580
00A10085
00300000
00000000
00016400
001D8B70
00881A70
01E8B500
08F70001
1BB0003D
029001C4
00A01B50
007CB300
ENDCHAR
STARTCHAR edieresis
ENCODING 235
SWIDTH 461 0
DWIDTH 7 0
BBX 8 12 -1 0
BITMAP
000B3A40
00010100
00000000
00016400
001D8B70
00881A70
01E8B500
08F70001
1BB0003D
029001C4
00A01B50
007CB300
ENDCHAR
STARTCHAR igrave
ENCODING 236
SWIDTH 132 0
DWIDTH 2 0
BBX 3 13 -1 0
BITMAP
1B00
0960
0020
0000
0660
0770
0770
0760
0760
0660
0660
0670
0570
ENDCHAR
STARTCHAR iacute
ENCODING 237
SWIDTH 132 0
DWIDTH 2 0
BBX 3 14 0 0
BITMAP
0220
2D20
5300
0000
0000
6600
7700
7700
7600
7600
6600
6600
6700
5700
ENDCHAR
STARTCHAR icircumflex
ENCODING 238
SWIDTH 132 0
DWIDTH 2 0
BBX 6 15 -2 0
BITMAP
00B400
058A20
0B01B1
65003A
300000
000000
006600
007700
007700
007600
007600
006600
006600
006700
005700
ENDCHAR
STARTCHAR idieresis
ENCODING 239
SWIDTH 132 0
DWIDTH 2 0
BBX 4 12 -1 0
BITMAP
6859
0000
0000
0660
0770
0770
0760
0760
0660
0660
0670
0570
ENDCHAR
STARTCHAR eth
ENCODING 240
SWIDTH 481 0
DWIDTH 8 0
BBX 7 11 1 -1
BITMAP
01A00000
00A50000
002C2430
0BDDB620
0002A000
5DA1C000
C58CB100
B008E000
920A7000
2CD80000
00100000
ENDCHAR
STARTCHAR ntilde
ENCODING 241
SWIDTH 483 0
DWIDTH 8 0
BBX 8 14 0 0
BITMAP
00550010
098B73E1
0701DD50
00001100
10001300
8403EE40
760C52A0
684C00C0
5A8600E0
4BB100D1
3DC000C1
2F8000B2
1F5000A2
0D200061
ENDCHAR
STARTCHAR ograve
ENCODING 242
SWIDTH 266 0
DWIDTH 4 0
BBX 4 12 0 0
BITMAP
0800
0A60
0040
0990
2C77
560B
830B
A30C
B30D
A33A
95B4
5E60
ENDCHAR
STARTCHAR oacute
ENCODING 243
SWIDTH 266 0
DWIDTH 4 0
BBX 4 12 0 0
BITMAP
0033
02D2
0430
0990
2C77
560B
830B
A30C
B30D
A33A
95B4
5E60
ENDCHAR
STARTCHAR ocircumflex
ENCODING 244
SWIDTH 266 0
DWIDTH 4 0
BBX 6 15 -1 0
BITMAP
00A500
049A30
0B11B2
57002C
300000
000000
009900
02C770
0560B0
0830B0
0A30C0
0B30D0
0A33A0
095B40
05E600
ENDCHAR
STARTCHAR otilde
ENCODING 245
SWIDTH 266 0
DWIDTH 4 0
BBX 7 13 -1 0
BITMAP
03620110
3C6D0B70
4309DA00
00002000
00990000
02C77000
0560B000
0830B000
0A30C000
0B30D000
0A33A000
095B4000
05E60000
ENDCHAR
STARTCHAR odieresis
ENCODING 246
SWIDTH 266 0
DWIDTH 4 0
BBX 4 12 0 0
BITMAP
493A
0000
0000
0990
2C77
560B
830B
A30C
B30D
A33A
95B4
5E60
ENDCHAR
STARTCHAR divide
ENCODING 247
SWIDTH 345 0
DWIDTH 6 0
BBX 6 6 0 1
BITMAP
009000
001230
5BBBA1
000000
007100
001000
ENDCHAR
STARTCHAR oslash
ENCODING 248
SWIDTH 266 0
DWIDTH 4 0
BBX 5 12 0 -2
BITMAP
000210
099B10
2C8A00
567C00
83BC00
A58C00
BA3D00
AC3A00
98B400
9E6000
A00000
200000
ENDCHAR
STARTCHAR ugrave
ENCODING 249
SWIDTH 387 0
DWIDTH 6 0
BBX 6 13 0 -1
BITMAP
008000
00A600
001400
000000
530072
7500B2
6600B2
6700C2
5801E2
4906F3
1B2EB5
0AE559
001002
ENDCHAR
STARTCHAR uacute
ENCODING 250
SWIDTH 387 0
DWIDTH 6 0
BBX 6 13 0 -1
BITMAP
000330
003D20
004300
000000
530072
7500B2
6600B2
6700C2
5801E2
4906F3
1B2EB5
0AE559
001002
ENDCHAR
STARTCHAR ucircumflex
ENCODING 251
SWIDTH 387 0
DWIDTH 6 0
BBX 6 16 0 -1
BITMAP
00A400
049A30
0B11B2
56002B
300000
000000
000000
530072
7500B2
6600B2
6700C2
5801E2
4906F3
1B2EB5
0AE559
001002
ENDCHAR
STARTCHAR udieresis
ENCODING 252
SWIDTH 387 0
DWIDTH 6 0
BBX 6 13 0 -1
BITMAP
058490
000000
000000
000000
530072
7500B2
6600B2
6700C2
5801E2
4906F3
1B2EB5
0AE559
001002
ENDCHAR
STARTCHAR yacute
ENCODING 253
SWIDTH 363 0
DWIDTH 6 0
BBX 6 18 0 -6
BITMAP
000510
005C00
005100
000012
200047
880057
1D2067
05A076
00B586
002EB6
0007F5
0000D4
000093
0000B2
0000C1
0000C0
0000C0
0000C0
ENDCHAR
STARTCHAR thorn
ENCODING 254
SWIDTH 439 0
DWIDTH 7 0
BBX 7 12 0 -1
BITMAP
31000000
8616A920
78B503A0
7C100760
66003A00
5606B100
49AA1000
4F700000
48000000
56000000
65000000
22000000
ENDCHAR
STARTCHAR ydieresis
ENCODING 255
SWIDTH 363 0
DWIDTH 6 0
BBX 6 18 0 -6
BITMAP
086770
000000
000000
000012
200047
880057
1D2067
05A076
00B586
002EB6
0007F5
0000D4
000093
0000B2
0000C1
0000C0
0000C0
0000C0
ENDCHAR
STARTCHAR Amacron
ENCODING 256
SWIDTH 390 0
DWIDTH 6 0
BBX 8 14 0 0
BITMAP
579BC900
43210000
06800000
08E10000
0AA50000
0C2A0000
0D0A1000
0D067000
1C02D9B8
3C18F300
4FA4A400
68004800
75000B00
52000900
ENDCHAR
STARTCHAR amacron
ENCODING 257
SWIDTH 366 0
DWIDTH 6 0
BBX 6 12 0 0
BITMAP
579BCA
442100
000000
001870
00BAE0
06B1E0
0D35E0
5A0CE1
A45A83
C1D265
CB7056
780025
ENDCHAR
STARTCHAR Abreve
ENCODING 258
SWIDTH 390 0
DWIDTH 6 0
BBX 8 16 0 0
BITMAP
16028000
0AAD5000
00530000
00000000
06800000
08E10000
0AA50000
0C2A0000
0D0A1000
0D067000
1C02D9B8
3C18F300
4FA4A400
68004800
75000B00
52000900
ENDCHAR
STARTCHAR abreve
ENCODING 259
SWIDTH 366 0
DWIDTH 6 0
BBX 6 12 0 0
BITMAP
060090
05BB90
003500
001870
00BAE0
06B1E0
0D35E0
5A0CE1
A45A83
C1D265
CB7056
780025
ENDCHAR
STARTCHAR Aogonek
ENCODING 260
SWIDTH 390 0
DWIDTH 6 0
BBX 8 16 0 -4
BITMAP
06800000
08E10000
0AA50000
0C2A0000
0D0A1000
0D067000
1C02D9B8
3C18F300
4FA4A400
68004800
75000B00
52000B00
00007900
0000D000
0000D144
00007DC4
ENDCHAR
STARTCHAR aogonek
ENCODING 261
SWIDTH 366 0
DWIDTH 6 0
BBX 8 13 0 -4
BITMAP
00187000
00BAE000
06B1E000
0D35E000
5A0CE100
A45A8300
C1D26500
CB705600
7800A500
00069000
00094010
0005CBD1
00003410
ENDCHAR
STARTCHAR Cacute
ENCODING 262
SWIDTH 487 0
DWIDTH 8 0
BBX 8 15 0 0
BITMAP
00006000
00089000
00060000
00069200
00784800
01B00000
07500000
0B100000
1B000000
47000000
75000053
930001D1
93000A60
58019700
0ADB4000
ENDCHAR
STARTCHAR cacute
ENCODING 263
SWIDTH 390 0
DWIDTH 6 0
BBX 6 13 0 0
BITMAP
000600
008A00
006000
005300
08AC00
1D0C00
490300
660000
840000
930018
740058
3901C2
08CB30
ENDCHAR
STARTCHAR Ccircumflex
ENCODING 264
SWIDTH 487 0
DWIDTH 8 0
BBX 8 16 0 0
BITMAP
001C1000
0096B100
02A03A00
09200680
03069200
00784800
01B00000
07500000
0B100000
1B000000
47000000
75000053
930001D1
93000A60
58019700
0ADB4000
ENDCHAR
STARTCHAR ccircumflex
ENCODING 265
SWIDTH 390 0
DWIDTH 6 0
BBX 6 15 0 0
BITMAP
00A500
049A30
0B11B2
56002B
300000
005300
08AC00
1D0C00
490300
660000
840000
930018
740058
3901C2
08CB30
ENDCHAR
STARTCHAR Cdotaccent
ENCODING 266
SWIDTH 487 0
DWIDTH 8 0
BBX 8 14 0 0
BITMAP
00083000
00030000
00069200
00784800
01B00000
07500000
0B100000
1B000000
47000000
75000053
930001D1
93000A60
58019700
0ADB4000
ENDCHAR
STARTCHAR cdotaccent
ENCODING 267
SWIDTH 390 0
DWIDTH 6 0
BBX 6 12 0 0
BITMAP
001000
008000
005300
099C00
1D0C00
590300
760000
830000
920018
830068
3901C2
09CB30
ENDCHAR
STARTCHAR Ccaron
ENCODING 268
SWIDTH 487 0
DWIDTH 8 0
BBX 8 15 0 0
BITMAP
06200240
01A13910
003B7000
00079200
00784800
01B00000
07500000
0B100000
1B000000
47000000
75000053
930001D1
93000A60
58019700
0ADB4000
ENDCHAR
STARTCHAR ccaron
ENCODING 269
SWIDTH 390 0
DWIDTH 6 0
BBX 6 13 0 0
BITMAP
440016
0922A2
01B910
006300
08AC00
1D0C00
490300
660000
840000
930018
740058
3901C2
08CB30
ENDCHAR
STARTCHAR Dcaron
ENCODING 270
SWIDTH 554 0
DWIDTH 9 0
BBX 9 15 0 0
BITMAP
0080005200
0039067000
0006A50000
0430100000
1BEBBB8200
7B80003B20
0680000570
0580000650
0480000B10
0290005700
019002C000
00A01C3000
00A1C50000
007B600000
0067000000
ENDCHAR
STARTCHAR Emacron
ENCODING 274
SWIDTH 474 0
DWIDTH 8 0
BBX 8 14 0 0
BITMAP
268ACC30
24321000
22004720
6A6C9200
3F920000
1B000000
0B000500
0C04B400
0CA71000
0D400000
0D2003B2
0D208A10
0D8B5000
0A810000
ENDCHAR
STARTCHAR emacron
ENCODING 275
SWIDTH 461 0
DWIDTH 7 0
BBX 8 12 -1 0
BITMAP
00679BC7
01432100
00000000
00016400
001D8B70
00881A70
01E8B500
08F70001
1BB0003D
029001C4
00A01B50
007CB300
ENDCHAR
STARTCHAR Ebreve
ENCODING 276
SWIDTH 474 0
DWIDTH 8 0
BBX 8 15 0 0
BITMAP
00601900
008AD600
00053000
22004720
6A6C9200
3F920000
1B000000
0B000500
0C04B400
0CA71000
0D400000
0D2003B2
0D208A10
0D8B5000
0A810000
ENDCHAR
STARTCHAR ebreve
ENCODING 277
SWIDTH 461 0
DWIDTH 7 0
BBX 8 12 -1 0
BITMAP
00060190
0008AD60
00005300
00016400
001D8B70
00881A70
01E8B500
08F70001
1BB0003D
029001C4
00A01B50
007CB300
ENDCHAR
STARTCHAR Edotaccent
ENCODING 278
SWIDTH 474 0
DWIDTH 8 0
BBX 8 13 0 0
BITMAP
00480000
22124720
6A6C9200
3F920000
1B000000
0B000500
0C04B400
0CA71000
0D400000
0D2003B2
0D208A10
0D8B5000
0A810000
ENDCHAR
STARTCHAR edotaccent
ENCODING 279
SWIDTH 461 0
DWIDTH 7 0
BBX 8 10 -1 0
BITMAP
00008300
00019400
001D8B70
00881A70
01E8B500
08F70001
1BB0003D
029001C4
00A01B50
007CB300
ENDCHAR
STARTCHAR Eogonek
ENCODING 280
SWIDTH 474 0
DWIDTH 8 0
BBX 8 14 0 -2
BITMAP
22004720
6A6C9200
3F920000
1B000000
0B000500
0C04B400
0CA71000
0D400000
0D2003B2
0D208A10
0D8D9000
0A8B3000
000898B0
00016720
ENDCHAR
STARTCHAR eogonek
ENCODING 281
SWIDTH 461 0
DWIDTH 7 0
BBX 8 13 -1 -4
BITMAP
00016400
001D8B70
00881A70
01E8B500
08F70001
1BB0003D
029001C4
00A01B50
007CD300
000B3000
000D0010
0009BD90
00003200
ENDCHAR
STARTCHAR Ecaron
ENCODING 282
SWIDTH 474 0
DWIDTH 8 0
BBX 8 15 0 0
BITMAP
08000610
05708500
008A3000
22014720
6A6C9200
3F920000
1B000000
0B000500
0C04B400
0CA71000
0D400000
0D2003B2
0D208A10
0D8B5000
0A810000
ENDCHAR
STARTCHAR ecaron
ENCODING 283
SWIDTH 461 0
DWIDTH 7 0
BBX 8 13 -1 0
BITMAP
00800052
00390670
0006A500
00001000
00016400
001D8B70
00881A70
01E8B500
08F70001
1BB0003D
029001C4
00A01B50
007CB300
ENDCHAR
STARTCHAR Gcircumflex
ENCODING 284
SWIDTH 591 0
DWIDTH 9 0
BBX 10 17 0 -2
BITMAP
0002B10000
000A6A0000
0038059000
00A1008600
0030153000
0002C93000
001B100000
00A3000000
0490001461
0B1008CE90
2900002F30
750000BF00
A30009BD00
8935B90D00
18CA400E00
0000000E10
0000000710
ENDCHAR
STARTCHAR gcircumflex
ENCODING 285
SWIDTH 437 0
DWIDTH 7 0
BBX 7 22 0 -7
BITMAP
00590000
00B68000
07508500
1A000B30
12000000
00000000
0006B700
00988E00
0480BF00
0B139E10
480A3D30
833B0D40
B3C30C50
6F700B60
01000A70
00000B60
00000B40
00000D10
00002B00
00009500
0018B000
05C91000
ENDCHAR
STARTCHAR Gbreve
ENCODING 286
SWIDTH 591 0
DWIDTH 9 0
BBX 10 15 0 -2
BITMAP
0006009100
0004CBA000
00004A4000
0002C93000
001B100000
00A3000000
0490001461
0B1008CE90
2900002F30
750000BF00
A30009BD00
8935B90D00
18CA400E00
0000000E10
0000000710
ENDCHAR
STARTCHAR gbreve
ENCODING 287
SWIDTH 437 0
DWIDTH 7 0
BBX 7 20 0 -7
BITMAP
02503700
00B9D300
00062000
00000000
0006B700
00988E00
0480BF00
0B139E10
480A3D30
833B0D40
B3C30C50
6F700B60
01000A70
00000B60
00000B40
00000D10
00002B00
00009500
0018B000
05C91000
ENDCHAR
STARTCHAR Gdotaccent
ENCODING 288
SWIDTH 591 0
DWIDTH 9 0
BBX 10 15 0 -2
BITMAP
0000650000
0000210000
0000045000
0001AB5000
000A400000
0057000000
01B0001462
075005BDC1
0B00000C70
2A00006F40
570005DC30
4C449C2A30
06BB600A40
0000000950
0000000430
ENDCHAR
STARTCHAR gdotaccent
ENCODING 289
SWIDTH 437 0
DWIDTH 7 0
BBX 7 18 0 -7
BITMAP
00029000
00002000
0006B700
00988E00
0480BF00
0B139E10
480A3D30
833B0D40
B3C30C50
6F700B60
01000A70
00000B60
00000B40
00000D10
00002B00
00009500
0018B000
05C91000
ENDCHAR
STARTCHAR Gcommaaccent
ENCODING 290
SWIDTH 591 0
DWIDTH 9 0
BBX 10 17 0 -6
BITMAP
0000153000
0002C93000
001B100000
00A3000000
0490001461
0B1008CE90
2900002F30
750000BF00
A30009BD00
8935B90D00
18CA400E00
0000000E10
0000500710
0000D30000
0000C10000
0000B00000
0000100000
ENDCHAR
STARTCHAR Hcircumflex
ENCODING 292
SWIDTH 424 0
DWIDTH 7 0
BBX 7 16 0 0
BITMAP
00A50000
049A3000
0B11B200
57002C00
30000000
42004200
85006700
75003800
76002A00
66005B00
5704CC00
5CB81B00
4D200B00
48000A20
38000930
38000630
ENDCHAR
STARTCHAR hcircumflex
ENCODING 293
SWIDTH 466 0
DWIDTH 7 0
BBX 8 16 0 -1
BITMAP
0001C200
00077B10
001B02B0
53830059
75300000
76000000
76000000
7601AC70
771DB3E0
777D10E0
77D400E0
7BB000D0
7F4000D1
7C0000D1
540000C1
00000010
ENDCHAR
STARTCHAR Hbar
ENCODING 294
SWIDTH 424 0
DWIDTH 7 0
BBX 7 11 0 0
BITMAP
42004200
85006700
75003900
9CBCDD00
66005B00
6804CC00
5CB81B00
4D200B00
48000A20
38000930
38000630
ENDCHAR
STARTCHAR hbar
ENCODING 295
SWIDTH 466 0
DWIDTH 7 0
BBX 9 13 -1 -1
BITMAP
0530000000
0750000000
0760000000
29A8A80000
7B945BC700
0771DB3E00
0777D10E00
077D400E00
07BB000D00
07F4000D10
07C0000D10
0540000C10
0000000100
ENDCHAR
STARTCHAR Itilde
ENCODING 296
SWIDTH 153 0
DWIDTH 2 0
BBX 7 16 -2 0
BITMAP
04610110
6A8A1D30
610BD700
00001000
00290000
000B0000
000C0000
000C0000
000C0000
000C0000
000C0000
000C0000
000C0000
000C0000
000C0000
00090000
ENDCHAR
STARTCHAR itilde
ENCODING 297
SWIDTH 132 0
DWIDTH 2 0
BBX 6 13 -2 0
BITMAP
177103
B6975D
501CD3
000000
006600
007700
007700
007600
007600
006600
006600
006700
005700
ENDCHAR
STARTCHAR imacron
ENCODING 299
SWIDTH 132 0
DWIDTH 2 0
BBX 6 12 -2 0
BITMAP
479BCB
343100
000000
006600
007700
007700
007600
007600
006600
006600
006700
005700
ENDCHAR
STARTCHAR Ibreve
ENCODING 300
SWIDTH 153 0
DWIDTH 2 0
BBX 5 16 -1 0
BITMAP
420640
2CAC10
026100
000000
029000
00B000
00C000
00C000
00C000
00C000
00C000
00C000
00C000
00C000
00C000
009000
ENDCHAR
STARTCHAR ibreve
ENCODING 301
SWIDTH 132 0
DWIDTH 2 0
BBX 5 13 -1 0
BITMAP
300520
5A7D10
058200
000000
066000
077000
077000
076000
076000
066000
066000
067000
057000
ENDCHAR
STARTCHAR Iogonek
ENCODING 302
SWIDTH 153 0
DWIDTH 2 0
BBX 4 16 0 -4
BITMAP
2900
0B00
0C00
0C00
0C00
0C00
0C00
0C00
0C00
0C00
0C00
2D10
A400
C103
6DE9
0110
ENDCHAR
STARTCHAR iogonek
ENCODING 303
SWIDTH 132 0
DWIDTH 2 0
BBX 5 16 -1 -4
BITMAP
071000
010000
000000
066000
077000
077000
076000
076000
066000
066000
066000
067000
1C2000
670000
4A5930
079600
ENDCHAR
STARTCHAR Idotaccent
ENCODING 304
SWIDTH 153 0
DWIDTH 2 0
BBX 2 14 0 0
BITMAP
39
12
47
39
2A
2A
1B
1B
0C
0C
0C
0C
0C
09
ENDCHAR
STARTCHAR dotlessi
ENCODING 305
SWIDTH 132 0
DWIDTH 2 0
BBX 2 9 0 0
BITMAP
66
77
77
76
76
66
66
67
57
ENDCHAR
STARTCHAR Jcircumflex
ENCODING 308
SWIDTH 371 0
DWIDTH 6 0
BBX 7 17 0 -1
BITMAP
001C2000
0077B100
01B02B00
08300590
03012000
00038000
0002A000
0001C000
0000E000
0000C200
0000A300
00008500
00007500
20006600
70006600
48008400
05999000
ENDCHAR
STARTCHAR jcircumflex
ENCODING 309
SWIDTH 112 0
DWIDTH 2 0
BBX 7 21 -3 -6
BITMAP
001C2000
0086B100
01A03B00
09300580
03000000
00000000
00010000
00084000
00084000
00084000
00085000
00076000
00067000
00058000
00049000
0003A000
0002A000
00049000
83076000
1A7D1000
00430000
ENDCHAR
STARTCHAR Kcommaaccent
ENCODING 310
SWIDTH 524 0
DWIDTH 8 0
BBX 9 17 0 -6
BITMAP
6300000000
57001B1000
3900960000
1A05A00000
0C1C100000
0C85000000
0CB0000000
0B80000000
0ADCBBAA20
0750000000
0450000000
0000000000
0002300000
0007A00000
0005800000
0006500000
0001000000
ENDCHAR
STARTCHAR kcommaaccent
ENCODING 311
SWIDTH 428 0
DWIDTH 7 0
BBX 7 18 0 -5
BITMAP
02000000
2B000000
3C000000
4B000220
4B001D40
5A008C00
5903F300
681D7000
68B90000
7E900000
7F700000
877CA610
84004A30
40000000
00150000
003D0000
002C0000
00280000
ENDCHAR
STARTCHAR Lacute
ENCODING 313
SWIDTH 537 0
DWIDTH 9 0
BBX 9 12 0 0
BITMAP
0000240000
0001D40000
7802400000
7900000000
6900000000
6A00000000
5A00000000
5B00000000
4C00001640
4C0018B610
4D39C50000
3EC5000000
ENDCHAR
STARTCHAR lacute
ENCODING 314
SWIDTH 137 0
DWIDTH 2 0
BBX 2 18 0 0
BITMAP
06
7B
61
00
51
83
64
55
46
37
28
29
29
1A
2A
2B
3B
27
ENDCHAR
STARTCHAR Lcommaaccent
ENCODING 315
SWIDTH 537 0
DWIDTH 9 0
BBX 9 16 0 -6
BITMAP
7800000000
7900000000
6900000000
6A00000000
5A00000000
5B00000000
4C00001640
4C0018B610
4D39C50000
3EC5000000
0000000000
0001400000
0005B00000
0003A00000
0004700000
0001000000
ENDCHAR
STARTCHAR lcommaaccent
ENCODING 316
SWIDTH 137 0
DWIDTH 2 0
BBX 2 20 0 -6
BITMAP
51
83
64
55
46
37
28
29
29
1A
2A
2B
3B
27
00
23
79
67
74
10
ENDCHAR
STARTCHAR Lcaron
ENCODING 317
SWIDTH 537 0
DWIDTH 9 0
BBX 9 15 0 0
BITMAP
0800061000
0570850000
008A300000
0001000000
0000000000
7800000000
7900000000
6900000000
6A00000000
5A00000000
5B00000000
4C00001640
4C0018B610
4D39C50000
3EC5000000
ENDCHAR
STARTCHAR Ldot
ENCODING 319
SWIDTH 537 0
DWIDTH 9 0
BBX 9 10 0 0
BITMAP
7800000000
7900000000
6900000000
6A00000000
5A00000000
5B01700000
4C01501640
4C0018B610
4D39C50000
3EC5000000
ENDCHAR
STARTCHAR ldot
ENCODING 320
SWIDTH 267 0
DWIDTH 4 0
BBX 4 14 0 0
BITMAP
5100
8300
6400
5500
4600
3700
2800
2900
2900
1A25
2A34
2B00
3B00
2700
ENDCHAR
STARTCHAR Lslash
ENCODING 321
SWIDTH 537 0
DWIDTH 9 0
BBX 10 10 -1 0
BITMAP
0780000000
0790000000
0690000000
06A0000000
05A0251000
05DBD92000
5CD3000164
04C0018B61
04D39C5000
03EC500000
ENDCHAR
STARTCHAR lslash
ENCODING 322
SWIDTH 137 0
DWIDTH 2 0
BBX 6 14 -2 0
BITMAP
005100
008300
006400
005500
004600
003700
002800
002900
002902
003DEB
7CBC10
002B00
003B00
002700
ENDCHAR
STARTCHAR Nacute
ENCODING 323
SWIDTH 541 0
DWIDTH 9 0
BBX 8 14 0 0
BITMAP
00015000
001C5010
002500A3
20000076
7B000067
6F900058
4BC50048
2A2D2048
1B04C039
0C006849
0C000A9A
0B2001CB
0940003F
07300002
ENDCHAR
STARTCHAR nacute
ENCODING 324
SWIDTH 483 0
DWIDTH 8 0
BBX 8 12 0 0
BITMAP
00006000
000A8000
10061300
8403EE40
760C52A0
684C00C0
5A8600E0
4BB100D1
3DC000C1
2F8000B2
1F5000A2
0D200061
ENDCHAR
STARTCHAR Ncommaaccent
ENCODING 325
SWIDTH 541 0
DWIDTH 9 0
BBX 8 19 0 -6
BITMAP
00000010
000000A3
20000076
7B000067
6F900058
4BC50048
2A2D2048
1B04C039
0C006849
0C000A9A
0B2001CB
0940003F
07300002
00000000
00014000
0005C000
0003A000
00047000
00010000
ENDCHAR
STARTCHAR ncommaaccent
ENCODING 326
SWIDTH 483 0
DWIDTH 8 0
BBX 8 16 0 -6
BITMAP
10001300
8403EE40
760C52A0
684C00C0
5A8600E0
4BB100D1
3DC000C1
2F8000B2
1F5000A2
0D200061
00000000
00041000
000B5000
000A3000
000A0000
00010000
ENDCHAR
STARTCHAR Ncaron
ENCODING 327
SWIDTH 541 0
DWIDTH 9 0
BBX 8 15 0 0
BITMAP
04400160
00922A20
001B9110
000100A3
20000076
7B000067
6F900058
4BC50048
2A2D2048
1B04C039
0C006849
0C000A9A
0B2001CB
0940003F
07300002
ENDCHAR
STARTCHAR ncaron
ENCODING 328
SWIDTH 483 0
DWIDTH 8 0
BBX 8 13 0 0
BITMAP
07100340
01A04900
004B6000
10011300
8403EE40
760C52A0
684C00C0
5A8600E0
4BB100D1
3DC000C1
2F8000B2
1F5000A2
0D200061
ENDCHAR
STARTCHAR napostrophe
ENCODING 329
SWIDTH 483 0
DWIDTH 8 0
BBX 8 14 0 0
BITMAP
00500000
01F10000
00D00000
00B00000
10101300
8403EE40
760C52A0
684C00C0
5A8600E0
4BB100D1
3DC000C1
2F8000B2
1F5000A2
0D200061
ENDCHAR
STARTCHAR Omacron
ENCODING 332
SWIDTH 382 0
DWIDTH 6 0
BBX 7 13 0 0
BITMAP
0579BC90
04321000
004A6000
03D5A600
0A302B00
1D001D00
59000D00
85002C00
A2004A00
B1008600
A200D100
69297000
0BE70000
ENDCHAR
STARTCHAR omacron
ENCODING 333
SWIDTH 266 0
DWIDTH 4 0
BBX 6 12 -1 0
BITMAP
378ACC
343200
000000
009900
02C770
0560B0
0830B0
0A30C0
0B30D0
0A33A0
095B40
05E600
ENDCHAR
STARTCHAR Obreve
ENCODING 334
SWIDTH 382 0
DWIDTH 6 0
BBX 6 14 0 0
BITMAP
060091
05BBA0
003500
004A60
03D5A6
0A302B
1D001D
59000D
85002C
A2004A
B10086
A200D1
692970
0BE700
ENDCHAR
STARTCHAR obreve
ENCODING 335
SWIDTH 266 0
DWIDTH 4 0
BBX 5 12 0 0
BITMAP
520630
2CAC10
025100
099000
2C7700
560B00
830B00
A30C00
B30D00
A33A00
95B400
5E6000
ENDCHAR
STARTCHAR Ohungarumlaut
ENCODING 336
SWIDTH 382 0
DWIDTH 6 0
BBX 7 14 0 0
BITMAP
00038310
001D7D10
00025200
004A6000
03D5A600
0A302B00
1D001D00
59000D00
85002C00
A2004A00
B1008600
A200D100
69297000
0BE70000
ENDCHAR
STARTCHAR ohungarumlaut
ENCODING 337
SWIDTH 266 0
DWIDTH 4 0
BBX 4 12 0 0
BITMAP
0464
2D7C
1261
0990
2C77
560B
830B
A30C
B30D
A33A
95B4
5E60
ENDCHAR
STARTCHAR OE
ENCODING 338
SWIDTH 732 0
DWIDTH 12 0
BBX 12 12 0 0
BITMAP
000001000420
004BAB29C600
03D5AFD60000
0A302D000000
1D001D000200
59000E018800
85002F7A3000
A2004F800000
B1008F400184
A200DC403B50
69297B699100
0BE70BC40000
ENDCHAR
STARTCHAR oe
ENCODING 339
SWIDTH 628 0
DWIDTH 10 0
BBX 10 9 0 0
BITMAP
0990039710
2C772D5890
560B972B60
830CEAB300
A30DE50004
B30EB0004D
A33BA001D3
94B4B03B40
5D605C9100
ENDCHAR
STARTCHAR Racute
ENCODING 340
SWIDTH 503 0
DWIDTH 8 0
BBX 8 15 0 0
BITMAP
00001500
0001C500
46028300
6A7CAAD5
6E500078
69000690
5802A600
589A2000
5E500000
5F920000
578D8100
55017D82
5500016B
55000000
44000000
ENDCHAR
STARTCHAR racute
ENCODING 341
SWIDTH 396 0
DWIDTH 6 0
BBX 6 12 0 0
BITMAP
000330
002D30
003300
000011
831CDA
759800
47D100
29D000
0BC000
0CB000
0AA000
068000
ENDCHAR
STARTCHAR Rcommaaccent
ENCODING 342
SWIDTH 503 0
DWIDTH 8 0
BBX 8 19 0 -6
BITMAP
46003300
6A7CAAD5
6E500078
69000690
5802A600
589A2000
5E500000
5F920000
578D8100
55017D82
5500016B
55000000
44000000
00000000
00032000
00097000
00076000
00083000
00010000
ENDCHAR
STARTCHAR rcommaaccent
ENCODING 343
SWIDTH 396 0
DWIDTH 6 0
BBX 6 15 0 -6
BITMAP
000011
831CDA
759800
47D100
29D000
0BC000
0CB000
0AA000
068000
000000
002300
006A00
005800
005500
001000
ENDCHAR
STARTCHAR Rcaron
ENCODING 344
SWIDTH 503 0
DWIDTH 8 0
BBX 8 16 0 0
BITMAP
02600070
00841930
000A9200
46013300
6A7CAAD5
6E500078
69000690
5802A600
589A2000
5E500000
5F920000
578D8100
55017D82
5500016B
55000000
44000000
ENDCHAR
STARTCHAR rcaron
ENCODING 345
SWIDTH 396 0
DWIDTH 6 0
BBX 6 13 0 0
BITMAP
340016
0921A2
01B910
001000
000011
831CDA
759800
47D100
29D000
0BC000
0CB000
0AA000
068000
ENDCHAR
STARTCHAR Sacute
ENCODING 346
SWIDTH 541 0
DWIDTH 9 0
BBX 9 15 0 0
BITMAP
0000230000
0002D30000
0003400000
0000585000
004A573000
05A0000000
2C00000000
9400000000
C100000000
6910000000
038AAA8300
0000013C30
0000018B10
0026BB4000
0196200000
ENDCHAR
STARTCHAR sacute
ENCODING 347
SWIDTH 366 0
DWIDTH 6 0
BBX 6 13 0 -1
BITMAP
000510
004D10
005100
000000
019BA0
0B4000
680000
940361
6ECAB8
010077
0008B0
02CA10
014000
ENDCHAR
STARTCHAR Scircumflex
ENCODING 348
SWIDTH 541 0
DWIDTH 9 0
BBX 9 17 0 0
BITMAP
0003B10000
000A6A0000
0048068000
00A1009500
0030000000
0000585000
004A573000
05A0000000
2C00000000
9400000000
C100000000
6910000000
038AAA8300
0000013C30
0000018B10
0026BB4000
0196200000
ENDCHAR
STARTCHAR scircumflex
ENCODING 349
SWIDTH 366 0
DWIDTH 6 0
BBX 6 14 0 -1
BITMAP
00A500
049A30
0B11B2
56002B
300000
019BA0
0B4000
680000
940361
6ECAB8
010077
0008B0
02CA10
014000
ENDCHAR
STARTCHAR Scedilla
ENCODING 350
SWIDTH 541 0
DWIDTH 9 0
BBX 9 17 0 -5
BITMAP
0000585000
004A573000
05A0000000
2C00000000
9400000000
C100000000
6910000000
038AAA8300
0000013C30
0000018B10
0026BB4000
0196260000
00000C0000
00000BC300
0000016D60
0000003AB0
000009B920
ENDCHAR
STARTCHAR scedilla
ENCODING 351
SWIDTH 366 0
DWIDTH 6 0
BBX 6 13 0 -5
BITMAP
019BA0
0B4000
680000
940361
6ECAB8
010077
0008B0
02CA10
01C100
00AB20
0028E6
00007D
007DC5
ENDCHAR
STARTCHAR Scaron
ENCODING 352
SWIDTH 541 0
DWIDTH 9 0
BBX 9 15 0 0
BITMAP
0260007000
0084193000
000A910000
0001585000
004A573000
05A0000000
2C00000000
9400000000
C100000000
6910000000
038AAA8300
0000013C30
0000018B10
0026BB4000
0196200000
ENDCHAR
STARTCHAR scaron
ENCODING 353
SWIDTH 366 0
DWIDTH 6 0
BBX 6 13 0 -1
BITMAP
620024
1A1391
03B700
001000
019BA0
0B4000
680000
940361
6ECAB8
010077
0008B0
02CA10
014000
ENDCHAR
STARTCHAR Tcommaaccent
ENCODING 354
SWIDTH 595 0
DWIDTH 10 0
BBX 12 18 0 -6
BITMAP
000004001241
02469FCCCA50
8B853F000000
00000C000000
00000B100000
000009300000
000008500000
000007700000
000005900000
000003B00000
000001C00000
000000B00000
000000000000
000000320000
000000A60000
000000940000
000000910000
000000100000
ENDCHAR
STARTCHAR tcommaaccent
ENCODING 355
SWIDTH 268 0
DWIDTH 4 0
BBX 6 19 -1 -6
BITMAP
001000
00D000
00C000
00C000
01D8C4
3BE930
59B000
02C000
01D000
00D000
00D000
00D000
00C000
003000
002300
007A00
005800
006500
001000
ENDCHAR
STARTCHAR Tcaron
ENCODING 356
SWIDTH 595 0
DWIDTH 10 0
BBX 12 16 0 0
BITMAP
000440016000
0000922A2000
00001B910000
000001000000
000004001241
02469FCCCA50
8B853F000000
00000C000000
00000B100000
000009300000
000008500000
000007700000
000005900000
000003B00000
000001C00000
000000B00000
ENDCHAR
STARTCHAR Tbar
ENCODING 358
SWIDTH 595 0
DWIDTH 10 0
BBX 12 12 0 0
BITMAP
000004001241
02469FCCCA50
8B853F000000
00000C000000
00279EDD4000
00132A300000
000008500000
000007700000
000005900000
000003B00000
000001C00000
000000B00000
ENDCHAR
STARTCHAR Utilde
ENCODING 360
SWIDTH 450 0
DWIDTH 7 0
BBX 7 16 0 -2
BITMAP
01630010
0D6D27B0
1605DC20
00001000
33000380
870006A0
770009A0
77000B90
67000E80
67002F70
57006B80
4700B490
1C1671A0
06C800B0
000000B0
00000070
ENDCHAR
STARTCHAR utilde
ENCODING 361
SWIDTH 387 0
DWIDTH 6 0
BBX 6 13 0 -1
BITMAP
155002
B7B54E
702DD4
000110
530072
7500B2
6600B2
6700C2
5801E2
4906F3
1B2EB5
0AE559
001002
ENDCHAR
STARTCHAR Umacron
ENCODING 362
SWIDTH 450 0
DWIDTH 7 0
BBX 7 14 0 -2
BITMAP
168ABC50
14321000
33000380
870006A0
770009A0
77000B90
67000E80
67002F70
57006B80
4700B490
1C1671A0
06C800B0
000000B0
00000070
ENDCHAR
STARTCHAR umacron
ENCODING 363
SWIDTH 387 0
DWIDTH 6 0
BBX 6 13 0 -1
BITMAP
478ACC
343200
000000
000000
530072
7500B2
6600B2
6700C2
5801E2
4906F3
1B2EB5
0AE559
001002
ENDCHAR
STARTCHAR Ubreve
ENCODING 364
SWIDTH 450 0
DWIDTH 7 0
BBX 7 14 0 -2
BITMAP
01502800
00A9D400
33053380
870006A0
770009A0
77000B90
67000E80
67002F70
57006B80
4700B490
1C1671A0
06C800B0
000000B0
00000070
ENDCHAR
STARTCHAR ubreve
ENCODING 365
SWIDTH 387 0
DWIDTH 6 0
BBX 6 13 0 -1
BITMAP
051072
03CAC0
002500
000000
530072
7500B2
6600B2
6700C2
5801E2
4906F3
1B2EB5
0AE559
001002
ENDCHAR
STARTCHAR Uring
ENCODING 366
SWIDTH 450 0
DWIDTH 7 0
BBX 7 15 0 -2
BITMAP
008B9100
0590A400
02B9A100
33000380
870006A0
770009A0
77000B90
67000E80
67002F70
57006B80
4700B490
1C1671A0
06C800B0
000000B0
00000070
ENDCHAR
STARTCHAR uring
ENCODING 367
SWIDTH 387 0
DWIDTH 6 0
BBX 6 12 0 -1
BITMAP
03AB60
0A41D0
06B980
530072
7500B2
6600B2
6700C2
5801E2
4906F3
1B2EB5
0AE559
001002
ENDCHAR
STARTCHAR Uhungarumlaut
ENCODING 368
SWIDTH 450 0
DWIDTH 7 0
BBX 7 16 0 -2
BITMAP
00292200
00C7D300
00343000
00000000
33000380
870006A0
770009A0
77000B90
67000E80
67002F70
57006B80
4700B490
1C1671A0
06C800B0
000000B0
00000070
ENDCHAR
STARTCHAR uhungarumlaut
ENCODING 369
SWIDTH 387 0
DWIDTH 6 0
BBX 6 12 0 -1
BITMAP
01A140
098C50
032500
530072
7500B2
6600B2
6700C2
5801E2
4906F3
1B2EB5
0AE559
001002
ENDCHAR
STARTCHAR Uogonek
ENCODING 370
SWIDTH 450 0
DWIDTH 7 0
BBX 9 15 0 -5
BITMAP
3300038000
870006A000
770009A000
77000B9000
67000E8000
67002F7000
57006B8000
4700B49000
1C1671A000
06C800B000
000006D000
00002C7000
0000670000
00003C8D30
0000035200
ENDCHAR
STARTCHAR uogonek
ENCODING 371
SWIDTH 387 0
DWIDTH 6 0
BBX 7 12 0 -4
BITMAP
53007200
7500B200
6600B200
6700C200
5801E200
4906F300
1B2EB500
0AE57900
0014B300
000A3000
00096590
0002AA50
ENDCHAR
STARTCHAR Wcircumflex
ENCODING 372
SWIDTH 878 0
DWIDTH 14 0
BBX 14 18 0 -1
BITMAP
000000B3000000
0000068B200000
00000B02B10000
000074004A0000
00003000000000
00000000000055
00000000000094
7500003D0000C0
6B00006E4001B0
0D1000A7900570
095001A1D00940
05A00560B30C00
01E00A10581B00
00D41B000C6800
0099570005E400
004EB30000C100
000CD000000000
00011000000000
ENDCHAR
STARTCHAR wcircumflex
ENCODING 373
SWIDTH 566 0
DWIDTH 9 0
BBX 9 15 0 0
BITMAP
0005A00000
000B680000
0066086000
01A000B300
0120000000
0000000000
0001100100
7407B00830
3A09C50850
0C1A4C1840
077C258850
02DD20BA60
00BF103F60
005E000970
000B000000
ENDCHAR
STARTCHAR Ycircumflex
ENCODING 374
SWIDTH 483 0
DWIDTH 8 0
BBX 8 17 0 0
BITMAP
001C2000
0077B100
01B03B00
08300590
03000021
00000074
100000A1
930001B0
2D100670
06B00B20
008A2C00
000AE700
0001F100
0003B000
00076000
000C1000
000A0000
ENDCHAR
STARTCHAR ycircumflex
ENCODING 375
SWIDTH 363 0
DWIDTH 6 0
BBX 6 21 0 -6
BITMAP
01C200
077B10
1B02B0
830059
300000
000000
000012
200047
880057
1D2067
05A076
00B586
002EB6
0007F5
0000D4
000093
0000B2
0000C1
0000C0
0000C0
0000C0
ENDCHAR
STARTCHAR Ydieresis
ENCODING 376
SWIDTH 483 0
DWIDTH 8 0
BBX 8 13 0 0
BITMAP
00000021
00857674
100000A1
930001B0
2D100670
06B00B20
008A2C00
000AE700
0001F100
0003B000
00076000
000C1000
000A0000
ENDCHAR
STARTCHAR Zacute
ENCODING 377
SWIDTH 670 0
DWIDTH 11 0
BBX 11 15 0 0
BITMAP
000006000000
00007B000000
000061000000
000000000000
4AAAABCDB000
0000001D6000
000000A90000
000007B00000
00004D100000
0002D3000000
000C60000000
009900000000
06B000000000
3E4333334520
8FEDDCCCBA30
ENDCHAR
STARTCHAR zacute
ENCODING 378
SWIDTH 618 0
DWIDTH 10 0
BBX 11 13 0 -1
BITMAP
000005100000
00004D100000
000051000000
000000000000
00039E400000
38CA5E200000
25107B000000
0000D2000000
000680000000
000C10000200
003C259CED20
006EC9641000
001000000000
ENDCHAR
STARTCHAR Zdotaccent
ENCODING 379
SWIDTH 670 0
DWIDTH 11 0
BBX 11 13 0 0
BITMAP
000029000000
000002000000
4AAAABCDB000
0000001D6000
000000A90000
000007B00000
00004D100000
0002D3000000
000C60000000
009900000000
06B000000000
3E4333334520
8FEDDCCCBA30
ENDCHAR
STARTCHAR zdotaccent
ENCODING 380
SWIDTH 618 0
DWIDTH 10 0
BBX 11 11 0 -1
BITMAP
000066000000
000021000000
00039E400000
38CA5E200000
25107B000000
0000D2000000
000680000000
000C10000200
003C259CED20
006EC9641000
001000000000
ENDCHAR
STARTCHAR Zcaron
ENCODING 381
SWIDTH 670 0
DWIDTH 11 0
BBX 11 15 0 0
BITMAP
000800052000
000380670000
00007A500000
000001000000
4AAAABCDB000
0000001D6000
000000A90000
000007B00000
00004D100000
0002D3000000
000C60000000
009900000000
06B000000000
3E4333334520
8FEDDCCCBA30
ENDCHAR
STARTCHAR zcaron
ENCODING 382
SWIDTH 618 0
DWIDTH 10 0
BBX 11 13 0 -1
BITMAP
007000610000
005608500000
0009A3000000
000010000000
00039E400000
38CA5E200000
25107B000000
0000D2000000
000680000000
000C10000200
003C259CED20
006EC9641000
001000000000
ENDCHAR
STARTCHAR florin
ENCODING 402
SWIDTH 345 0
DWIDTH 6 0
BBX 7 20 -1 -5
BITMAP
00022000
000DE200
003D3700
005A0100
00790000
00870000
00860110
0088AE40
02CB5100
05860000
00470000
00480000
00490000
004A0000
004B0000
004C0000
003D0000
003D0000
2CF80000
00100000
ENDCHAR
STARTCHAR AEacute
ENCODING 508
SWIDTH 708 0
DWIDTH 11 0
BBX 11 16 0 0
BITMAP
000015000000
0000C5000000
000150000000
000000000000
068031015810
08E1888D7100
0AA56E710000
0C2A48000000
0D0A49001500
0D068A178100
1C02EEB30000
3C18FF000000
4FA4AE0006B0
68004E01A700
75001F8B3000
520009600000
ENDCHAR
STARTCHAR aeacute
ENCODING 509
SWIDTH 705 0
DWIDTH 11 0
BBX 11 12 0 0
BITMAP
000000600000
000009900000
000006000000
0018707DB200
00BAE5C17900
06B1EC46B200
0D35FFD60000
5A0CFC100080
A45A99000890
C1D269005B10
CB705D59A100
780027740000
ENDCHAR
STARTCHAR Oslashacute
ENCODING 510
SWIDTH 382 0
DWIDTH 6 0
BBX 6 17 0 -2
BITMAP
000150
000C60
001500
000011
004BD1
03D6F6
0A359B
1D092D
590B0D
85472C
A2834A
B1B086
A490D1
6D5970
0EE700
190000
020000
ENDCHAR
STARTCHAR oslashacute
ENCODING 511
SWIDTH 266 0
DWIDTH 4 0
BBX 5 15 0 -2
BITMAP
003300
02D200
043000
000210
099B10
2C8A00
567C00
83BC00
A58C00
BA3D00
AC3A00
98B400
9E6000
A00000
200000
ENDCHAR
STARTCHAR Scommaaccent
ENCODING 536
SWIDTH 541 0
DWIDTH 9 0
BBX 9 18 0 -6
BITMAP
0000585000
004A573000
05A0000000
2C00000000
9400000000
C100000000
6910000000
038AAA8300
0000013C30
0000018B10
0026BB4000
0196200000
0000000000
0001400000
0005C00000
0003A00000
0004700000
0001000000
ENDCHAR
STARTCHAR scommaaccent
ENCODING 537
SWIDTH 366 0
DWIDTH 6 0
BBX 6 14 0 -6
BITMAP
019BA0
0B4000
680000
940361
6ECAB8
010077
0008B0
02CA10
014000
003200
00A600
009500
009100
001000
ENDCHAR
STARTCHAR circumflex
ENCODING 710
SWIDTH 390 0
DWIDTH 6 0
BBX 6 5 0 10
BITMAP
009500
03A940
0A20B2
47002C
300000
ENDCHAR
STARTCHAR caron
ENCODING 711
SWIDTH 390 0
DWIDTH 6 0
BBX 6 4 1 9
BITMAP
700061
560850
09A300
001000
ENDCHAR
STARTCHAR breve
ENCODING 728
SWIDTH 390 0
DWIDTH 6 0
BBX 4 3 1 9
BITMAP
6009
6BC8
0440
ENDCHAR
STARTCHAR dotaccent
ENCODING 729
SWIDTH 128 0
DWIDTH 2 0
BBX 2 2 0 8
BITMAP
65
21
ENDCHAR
STARTCHAR ring
ENCODING 730
SWIDTH 266 0
DWIDTH 4 0
BBX 4 3 0 8
BITMAP
2AB6
A41D
5B98
ENDCHAR
STARTCHAR ogonek
ENCODING 731
SWIDTH 366 0
DWIDTH 6 0
BBX 5 5 1 -4
BITMAP
012000
1C3000
680000
671610
1BD910
ENDCHAR
STARTCHAR tilde
ENCODING 732
SWIDTH 458 0
DWIDTH 7 0
BBX 7 4 0 8
BITMAP
02620010
2C6D0A70
3408DB10
00002000
ENDCHAR
STARTCHAR hungarumlaut
ENCODING 733
SWIDTH 239 0
DWIDTH 4 0
BBX 4 3 0 7
BITMAP
0924
89C6
3260
ENDCHAR
STARTCHAR Wgrave
ENCODING 7808
SWIDTH 878 0
DWIDTH 14 0
BBX 14 17 0 -1
BITMAP
00000072000000
0000005B000000
00000005000000
00000000000000
00000000000055
00000000000094
7500003D0000C0
6B00006E4001B0
0D1000A7900570
095001A1D00940
05A00560B30C00
01E00A10581B00
00D41B000C6800
0099570005E400
004EB30000C100
000CD000000000
00011000000000
ENDCHAR
STARTCHAR wgrave
ENCODING 7809
SWIDTH 566 0
DWIDTH 9 0
BBX 9 12 0 0
BITMAP
0006200000
0004C00000
0000400000
0001100100
7407B00830
3A09C50850
0C1A4C1840
077C258850
02DD20BA60
00BF103F60
005E000970
000B000000
ENDCHAR
STARTCHAR Wacute
ENCODING 7810
SWIDTH 878 0
DWIDTH 14 0
BBX 14 16 0 -1
BITMAP
00000024000000
000001D3000000
00000340000000
00000000000055
00000000000094
7500003D0000C0
6B00006E4001B0
0D1000A7900570
095001A1D00940
05A00560B30C00
01E00A10581B00
00D41B000C6800
0099570005E400
004EB30000C100
000CD000000000
00011000000000
ENDCHAR
STARTCHAR wacute
ENCODING 7811
SWIDTH 566 0
DWIDTH 9 0
BBX 9 12 0 0
BITMAP
0000050000
0000A70000
0000600000
0001100100
7407B00830
3A09C50850
0C1A4C1840
077C258850
02DD20BA60
00BF103F60
005E000970
000B000000
ENDCHAR
STARTCHAR Wdieresis
ENCODING 7812
SWIDTH 878 0
DWIDTH 14 0
BBX 14 14 0 -1
BITMAP
00000594A00000
00000000000055
00000000000094
7500003D0000C0
6B00006E4001B0
0D1000A7900570
095001A1D00940
05A00560B30C00
01E00A10581B00
00D41B000C6800
0099570005E400
004EB30000C100
000CD000000000
00011000000000
ENDCHAR
STARTCHAR wdieresis
ENCODING 7813
SWIDTH 566 0
DWIDTH 9 0
BBX 9 12 0 0
BITMAP
000C1C2000
0001010000
0000000000
0001100100
7407B00830
3A09C50850
0C1A4C1840
077C258850
02DD20BA60
00BF103F60
005E000970
000B000000
ENDCHAR
STARTCHAR Ygrave
ENCODING 7922
SWIDTH 483 0
DWIDTH 8 0
BBX 8 16 0 0
BITMAP
00080000
000A6000
00014000
00000021
00000074
100000A1
930001B0
2D100670
06B00B20
008A2C00
000AE700
0001F100
0003B000
00076000
000C1000
000A0000
ENDCHAR
STARTCHAR ygrave
ENCODING 7923
SWIDTH 363 0
DWIDTH 6 0
BBX 6 18 0 -6
BITMAP
026000
00C300
002300
000012
200047
880057
1D2067
05A076
00B586
002EB6
0007F5
0000D4
000093
0000B2
0000C1
0000C0
0000C0
0000C0
ENDCHAR
STARTCHAR endash
ENCODING 8211
SWIDTH 399 0
DWIDTH 6 0
BBX 6 3 0 3
BITMAP
000002
0028EB
7CA510
ENDCHAR
STARTCHAR emdash
ENCODING 8212
SWIDTH 549 0
DWIDTH 9 0
BBX 8 2 0 3
BITMAP
000269CC
7BBA7520
ENDCHAR
STARTCHAR quoteleft
ENCODING 8216
SWIDTH 155 0
DWIDTH 2 0
BBX 2 5 0 5
BITMAP
76
69
49
28
04
ENDCHAR
STARTCHAR quoteright
ENCODING 8217
SWIDTH 155 0
DWIDTH 2 0
BBX 2 5 0 5
BITMAP
76
69
49
28
04
ENDCHAR
STARTCHAR quotesinglbase
ENCODING 8218
SWIDTH 155 0
DWIDTH 2 0
BBX 2 6 0 -1
BITMAP
13
4A
3B
1B
09
01
ENDCHAR
STARTCHAR quotedblleft
ENCODING 8220
SWIDTH 212 0
DWIDTH 3 0
BBX 3 5 0 8
BITMAP
5130
7490
6590
4690
2630
ENDCHAR
STARTCHAR quotedblright
ENCODING 8221
SWIDTH 212 0
DWIDTH 3 0
BBX 3 5 0 8
BITMAP
5130
7490
6590
4690
2630
ENDCHAR
STARTCHAR quotedblbase
ENCODING 8222
SWIDTH 212 0
DWIDTH 3 0
BBX 3 5 0 0
BITMAP
4220
7490
5690
4690
2740
ENDCHAR
STARTCHAR dagger
ENCODING 8224
SWIDTH 268 0
DWIDTH 4 0
BBX 6 14 -1 -1
BITMAP
001000
00D000
00C000
00C000
01D8C4
3BE930
59B000
02C000
01D000
00D000
00D000
00D000
00C000
003000
ENDCHAR
STARTCHAR daggerdbl
ENCODING 8225
SWIDTH 326 0
DWIDTH 5 0
BBX 6 14 0 -1
BITMAP
001000
03A000
039000
039000
04B8C1
4DE810
8A9261
2AEB71
699000
04A000
03A000
02B000
00C000
003000
ENDCHAR
STARTCHAR bullet
ENCODING 8226
SWIDTH 189 0
DWIDTH 3 0
BBX 3 3 0 3
BITMAP
1B50
5F70
0400
ENDCHAR
STARTCHAR ellipsis
ENCODING 8230
SWIDTH 387 0
DWIDTH 6 0
BBX 6 1 0 0
BITMAP
776859
ENDCHAR
STARTCHAR guilsinglleft
ENCODING 8249
SWIDTH 409 0
DWIDTH 7 0
BBX 7 8 0 2
BITMAP
00001A40
0002C800
003D6000
05C20000
2E100000
06D50000
002BB400
00005C00
ENDCHAR
STARTCHAR guilsinglright
ENCODING 8250
SWIDTH 450 0
DWIDTH 7 0
BBX 7 9 0 2
BITMAP
15000000
1BC30000
004C9100
00005D20
00000B10
0001B500
003D6000
05E40000
2C200000
ENDCHAR
STARTCHAR fraction
ENCODING 8260
SWIDTH 306 0
DWIDTH 5 0
BBX 5 14 0 -2
BITMAP
000110
000740
000B00
002A00
006500
00A100
01A000
056000
092000
0B0000
370000
830000
A00000
200000
ENDCHAR
STARTCHAR Euro
ENCODING 8364
SWIDTH 589 0
DWIDTH 9 0
BBX 9 13 0 -1
BITMAP
0000187000
0000C58400
0006700000
000C100000
0039000000
25ACA60000
38D5100000
00C38B4000
6AE7410000
31C00001C0
00B2004C60
003DCEB400
0000210000
ENDCHAR
STARTCHAR trademark
ENCODING 8482
SWIDTH 1278 0
DWIDTH 20 0
BBX 20 13 0 0
BITMAP
00000000002000000010
0000040002E900000590
02469FCCB9DB50000AA0
8B853F0000A2C00019A0
00000C000082860055A0
00000B1000731C00A1A0
0000093000740850B0A0
00000850006601C56092
000007700067008E1073
00000590006900150065
000003B0006A00000058
000001C0005B0000003B
000000B0004B0000002B
ENDCHAR
STARTCHAR minus
ENCODING 8722
SWIDTH 358 0
DWIDTH 6 0
BBX 6 2 0 4
BITMAP
000131
3ABBA3
ENDCHAR
STARTCHAR commaaccent
ENCODING 63171
SWIDTH 450 0
DWIDTH 7 0
BBX 2 4 2 -5
BITMAP
14
3D
2C
28
ENDCHAR
STARTCHAR fi
ENCODING 64257
SWIDTH 409 0
DWIDTH 7 0
BBX 6 16 0 -1
BITMAP
002200
00DE20
03D370
05A054
079001
087000
08603A
0889FA
2CB65A
59603A
05703A
04902A
03B02A
02B02A
01A01A
000001
ENDCHAR
STARTCHAR fl
ENCODING 64258
SWIDTH 416 0
DWIDTH 7 0
BBX 7 15 0 0
BITMAP
00220000
00DE3100
03D3B700
05A03800
07901900
08700A00
08601A00
0889EC00
2CB62B00
59600B00
05700B00
04900C00
03B00C00
02B00D10
01A00D10
ENDCHAR
STARTCHAR .notdef
ENCODING -1
SWIDTH 450 0
DWIDTH 7 0
BBX 1 1 0 0
BITMAP
00
ENDCHAR
STARTCHAR .null
ENCODING -1
SWIDTH 0 0
DWIDTH 0 0
BBX 1 1 0 0
BITMAP
00
ENDCHAR
STARTCHAR nonmarkingreturn
ENCODING -1
SWIDTH 450 0
DWIDTH 7 0
BBX 1 1 0 0
BITMAP
00
ENDCHAR
ENDFONT
